<?xml version="1.0" standalone="no"?>
<!DOCTYPE svg PUBLIC "-//W3C//DTD SVG 20010904//EN"
 "http://www.w3.org/TR/2001/REC-SVG-20010904/DTD/svg10.dtd">
<svg version="1.0" xmlns="http://www.w3.org/2000/svg"
 width="300.000000pt" height="463.000000pt" viewBox="0 0 300.000000 463.000000"
 preserveAspectRatio="xMidYMid meet">
<metadata>
Created by potrace 1.10, written by Peter Selinger 2001-2011
</metadata>
<g transform="translate(0.000000,463.000000) scale(0.050000,-0.050000)"
fill="#0b758f" stroke="none">
<path d="M3241 9141 c-26 -48 -9 -96 42 -112 43 -13 97 21 97 62 0 15 15 21
38 15 46 -12 75 29 44 60 -17 17 -33 17 -62 -1 -24 -15 -43 -17 -50 -5 -21 34
-87 22 -109 -19z"/>
<path d="M3126 9128 c-14 -37 35 -75 61 -49 22 22 2 81 -27 81 -12 0 -27 -14
-34 -32z"/>
<path d="M3021 9071 c-34 -40 -18 -119 25 -127 83 -16 129 96 55 135 -49 27
-51 27 -80 -8z"/>
<path d="M3401 9051 c-42 -50 -18 -138 43 -159 100 -35 178 83 105 157 -40 39
-116 40 -148 2z"/>
<path d="M2868 9031 c-16 -40 7 -71 52 -71 46 0 64 26 48 68 -15 40 -85 42
-100 3z"/>
<path d="M3185 9046 c-40 -15 -29 -66 15 -66 22 0 40 13 40 29 0 35 -21 49
-55 37z"/>
<path d="M3640 9020 c-54 -54 -50 -112 10 -152 106 -70 210 88 106 161 -58 40
-68 39 -116 -9z"/>
<path d="M3847 8950 c-7 -18 -3 -42 9 -54 30 -30 88 -3 80 39 -9 46 -73 57
-89 15z"/>
<path d="M2701 8925 c-67 -55 -85 -169 -38 -255 l38 -71 -92 -39 c-69 -30 -98
-57 -121 -112 -46 -110 -26 -118 282 -118 308 0 328 8 282 118 -23 55 -52 82
-122 112 l-91 39 37 76 c82 164 -49 352 -175 250z"/>
<path d="M2500 8900 c0 -27 13 -40 40 -40 27 0 40 13 40 40 0 27 -13 40 -40
40 -27 0 -40 -13 -40 -40z"/>
<path d="M2934 8927 c-29 -28 -13 -67 27 -67 28 0 40 11 35 33 -7 37 -41 56
-62 34z"/>
<path d="M3078 8882 c-65 -66 -72 -117 -29 -201 83 -159 331 -84 331 100 0 66
-106 159 -180 159 -43 0 -82 -19 -122 -58z"/>
<path d="M3790 8859 c-8 -12 -5 -32 6 -43 27 -27 90 -4 79 29 -11 33 -68 43
-85 14z"/>
<path d="M3404 8825 c4 -19 20 -35 36 -35 16 0 32 16 36 35 5 25 -6 35 -36 35
-30 0 -41 -10 -36 -35z"/>
<path d="M2487 8810 c-17 -44 44 -107 75 -76 31 31 14 94 -27 102 -19 4 -41
-8 -48 -26z"/>
<path d="M2363 8794 c-18 -22 -17 -34 8 -54 46 -39 89 8 46 51 -26 27 -34 27
-54 3z"/>
<path d="M4792 8748 c-8 -20 -1 -47 14 -62 38 -39 98 -11 90 42 -8 53 -85 68
-104 20z"/>
<path d="M3540 8705 c-42 -38 -65 -80 -72 -135 -6 -44 -21 -101 -33 -126 -19
-38 -13 -65 36 -159 33 -63 62 -121 66 -129 3 -9 -61 -46 -142 -83 -200 -91
-332 -311 -222 -369 157 -83 903 -80 1019 5 95 69 -48 275 -257 370 l-134 61
62 105 c172 290 -93 667 -323 460z m160 -285 c0 -22 1 -47 2 -54 0 -8 -9 -18
-20 -22 -28 -9 -50 46 -35 86 17 44 53 37 53 -10z m82 -449 c63 -64 104 -175
50 -135 -12 10 -87 12 -167 5 -173 -14 -204 17 -116 121 28 34 51 54 51 46 0
-9 11 -5 24 8 41 41 87 27 158 -45z"/>
<path d="M4673 8747 c-26 -27 -12 -67 24 -67 47 0 63 17 49 52 -11 29 -50 37
-73 15z"/>
<path d="M2200 8700 c-77 -77 -16 -240 90 -240 53 0 130 83 130 140 0 112
-143 177 -220 100z"/>
<path d="M2434 8727 c-29 -28 -13 -67 27 -67 28 0 40 11 35 33 -7 37 -41 56
-62 34z"/>
<path d="M2523 8667 c9 -44 67 -50 67 -7 0 16 -17 33 -37 37 -27 5 -35 -3 -30
-30z"/>
<path d="M2929 8658 c-18 -28 21 -67 49 -49 12 7 22 26 22 42 0 34 -51 39 -71
7z"/>
<path d="M4607 8641 c-55 -23 -107 -98 -107 -155 0 -160 173 -242 293 -139
140 121 -15 364 -186 294z"/>
<path d="M4846 8628 c-7 -21 -3 -39 10 -43 13 -5 24 -30 24 -57 0 -35 11 -48
40 -48 44 0 54 49 15 74 -14 9 -25 33 -25 54 0 51 -46 65 -64 20z"/>
<path d="M2454 8627 c-29 -28 -13 -67 27 -67 28 0 40 11 35 33 -7 37 -41 56
-62 34z"/>
<path d="M3950 8620 c-18 -30 7 -60 51 -60 26 0 39 14 39 40 0 42 -67 57 -90
20z"/>
<path d="M2049 8578 c-25 -39 40 -86 69 -50 14 17 20 40 13 51 -17 27 -65 27
-82 -1z"/>
<path d="M3290 8579 c-8 -12 -5 -32 6 -43 27 -27 90 -4 79 29 -11 33 -68 43
-85 14z"/>
<path d="M3063 8547 c9 -44 67 -50 67 -7 0 16 -17 33 -37 37 -27 5 -35 -3 -30
-30z"/>
<path d="M3170 8528 c-61 -62 12 -162 85 -116 61 39 35 148 -35 148 -9 0 -32
-15 -50 -32z"/>
<path d="M4335 8518 c-65 -37 -30 -138 48 -138 30 0 77 53 77 87 0 49 -76 80
-125 51z"/>
<path d="M1980 8480 c0 -27 13 -40 40 -40 27 0 40 13 40 40 0 27 -13 40 -40
40 -27 0 -40 -13 -40 -40z"/>
<path d="M2110 8480 c-17 -27 6 -60 41 -60 16 0 29 18 29 40 0 41 -48 55 -70
20z"/>
<path d="M2360 8440 c0 -30 10 -41 35 -36 19 4 35 20 35 36 0 16 -16 32 -35
36 -25 5 -35 -6 -35 -36z"/>
<path d="M1891 8441 c-20 -31 6 -61 52 -61 27 0 38 11 33 35 -7 40 -66 58 -85
26z"/>
<path d="M3984 8385 c10 -52 76 -58 76 -6 0 28 -13 41 -41 41 -29 0 -40 -11
-35 -35z"/>
<path d="M4084 8355 c-37 -44 6 -93 46 -53 28 27 28 35 4 55 -22 18 -34 18
-50 -2z"/>
<path d="M4191 8336 c-40 -58 -39 -82 6 -123 70 -63 163 -30 163 60 0 99 -114
141 -169 63z"/>
<path d="M1873 8331 c-14 -37 31 -73 66 -52 33 21 13 81 -26 81 -16 0 -34 -13
-40 -29z"/>
<path d="M2061 8304 c-43 -43 -62 -90 -81 -198 l-26 -142 64 -104 c35 -58 61
-107 58 -111 -4 -4 -65 -33 -136 -65 -299 -135 -362 -362 -115 -407 263 -47
839 -21 902 42 95 95 -91 307 -374 425 -9 4 13 60 48 125 61 111 64 124 42
205 -13 48 -23 104 -23 125 0 148 -244 220 -359 105z m159 -229 c1 -36 4 -39
20 -15 17 26 19 25 20 -5 0 -19 -9 -35 -20 -35 -11 0 -19 -7 -18 -15 7 -43 -4
-110 -15 -98 -20 20 -24 213 -4 213 9 0 17 -20 17 -45z m98 -497 c118 -119 89
-146 -144 -139 -57 2 -120 4 -139 4 -19 0 -40 9 -48 21 -8 13 -4 16 10 8 13
-8 23 -3 23 10 0 35 143 171 183 175 18 2 69 -34 115 -79z"/>
<path d="M3207 8345 c-50 -32 -40 -137 16 -166 53 -29 127 1 142 58 22 83 -84
155 -158 108z"/>
<path d="M4384 8325 c4 -19 20 -35 36 -35 16 0 32 16 36 35 5 25 -6 35 -36 35
-30 0 -41 -10 -36 -35z"/>
<path d="M1801 8272 c-17 -21 -17 -32 -1 -42 15 -9 9 -24 -19 -43 -84 -59 -29
-172 66 -135 37 14 45 98 12 119 -14 8 -14 21 2 41 25 29 13 88 -18 88 -10 0
-29 -13 -42 -28z"/>
<path d="M2483 8267 c9 -44 67 -50 67 -7 0 16 -17 33 -37 37 -27 5 -35 -3 -30
-30z"/>
<path d="M3994 8277 c-73 -41 -16 -153 65 -127 26 8 41 30 41 61 0 58 -57 94
-106 66z"/>
<path d="M4460 8260 c0 -30 10 -41 35 -36 19 4 35 20 35 36 0 16 -16 32 -35
36 -25 5 -35 -6 -35 -36z"/>
<path d="M2831 8262 c-20 -33 41 -66 66 -35 13 14 17 33 9 40 -18 19 -62 16
-75 -5z"/>
<path d="M2999 8249 c-42 -50 27 -111 74 -65 36 37 24 96 -20 96 -15 0 -40
-14 -54 -31z"/>
<path d="M4567 8248 c-7 -17 2 -46 20 -64 47 -46 116 15 74 65 -33 40 -79 40
-94 -1z"/>
<path d="M1668 8233 c-15 -39 6 -73 45 -73 19 0 28 15 23 43 -7 53 -51 72 -68
30z"/>
<path d="M2627 8241 c-93 -39 -139 -187 -81 -263 107 -140 314 -76 314 98 0
121 -124 209 -233 165z"/>
<path d="M3110 8180 c-17 -27 6 -60 41 -60 16 0 29 18 29 40 0 41 -48 55 -70
20z"/>
<path d="M4353 8163 c-73 -80 -11 -223 97 -223 110 0 173 155 93 227 -48 44
-149 42 -190 -4z"/>
<path d="M1580 8140 c0 -27 13 -40 40 -40 27 0 40 13 40 40 0 27 -13 40 -40
40 -27 0 -40 -13 -40 -40z"/>
<path d="M4090 8140 c-20 -32 11 -64 51 -54 26 7 39 -3 43 -33 8 -60 84 -58
92 2 6 37 -3 45 -45 45 -29 0 -57 14 -64 30 -13 34 -58 40 -77 10z"/>
<path d="M2936 8088 c-28 -59 -7 -106 58 -130 87 -32 168 92 102 158 -44 44
-135 29 -160 -28z"/>
<path d="M1767 7950 c-7 -18 -3 -42 8 -53 33 -33 95 -11 95 33 0 51 -85 67
-103 20z"/>
<path d="M4240 7940 c0 -30 10 -41 35 -36 19 4 35 20 35 36 0 16 -16 32 -35
36 -25 5 -35 -6 -35 -36z"/>
<path d="M2850 7940 c-17 -27 6 -60 41 -60 16 0 29 18 29 40 0 41 -48 55 -70
20z"/>
<path d="M2974 7927 c-29 -28 -13 -67 27 -67 28 0 40 11 35 33 -7 37 -41 56
-62 34z"/>
<path d="M1820 7820 c0 -27 13 -40 40 -40 27 0 40 13 40 40 0 27 -13 40 -40
40 -27 0 -40 -13 -40 -40z"/>
<path d="M2490 7839 c-8 -12 -5 -32 6 -43 27 -27 90 -4 79 29 -11 33 -68 43
-85 14z"/>
<path d="M2611 7829 c-54 -55 -24 -129 52 -129 30 0 77 53 77 87 0 17 -62 73
-80 73 -9 0 -31 -14 -49 -31z"/>
<path d="M2793 7823 c-73 -80 -11 -223 97 -223 64 0 130 66 130 130 0 110
-155 173 -227 93z"/>
<path d="M1700 7770 c0 -54 87 -75 105 -25 16 44 -7 75 -57 75 -38 0 -48 -10
-48 -50z"/>
<path d="M3014 7647 c-29 -28 -13 -67 27 -67 28 0 40 11 35 33 -7 37 -41 56
-62 34z"/>
<path d="M3144 7585 c4 -19 20 -35 36 -35 16 0 32 16 36 35 5 25 -6 35 -36 35
-30 0 -41 -10 -36 -35z"/>
<path d="M2760 7560 c0 -27 13 -40 40 -40 27 0 40 13 40 40 0 27 -13 40 -40
40 -27 0 -40 -13 -40 -40z"/>
<path d="M3862 7572 c-29 -34 -14 -72 28 -72 43 0 58 41 26 73 -26 25 -33 25
-54 -1z"/>
<path d="M4004 7565 c4 -19 20 -35 36 -35 16 0 32 16 36 35 5 25 -6 35 -36 35
-30 0 -41 -10 -36 -35z"/>
<path d="M3300 7550 c-28 -34 3 -90 50 -90 37 0 55 60 28 93 -29 35 -47 34
-78 -3z"/>
<path d="M2908 7502 c-143 -87 -137 -315 11 -392 209 -108 429 90 331 298 -60
125 -220 169 -342 94z"/>
<path d="M3517 7511 c-124 -70 -164 -323 -77 -479 l63 -110 -157 -76 c-214
-104 -342 -343 -201 -375 290 -66 760 -66 980 1 125 38 -10 276 -211 373
l-157 75 64 116 64 116 -34 152 c-47 212 -180 294 -334 207z m131 -266 c13
-42 4 -141 -15 -155 -7 -6 -9 -4 -3 3 5 7 2 23 -8 35 -16 20 -30 98 -24 137 4
29 39 15 50 -20z m94 -497 c116 -95 121 -121 23 -137 -160 -25 -270 -19 -296
17 -19 26 -28 28 -35 8 -7 -17 -11 -14 -12 9 -1 19 8 35 19 35 12 0 16 9 9 20
-7 11 6 20 29 20 37 0 51 21 43 68 -2 9 15 12 39 6 30 -8 39 -3 32 15 -18 48
50 20 149 -61z"/>
<path d="M3964 7476 c-59 -59 -9 -176 75 -176 31 0 101 75 101 109 0 73 -123
120 -176 67z"/>
<path d="M4161 7391 c-27 -33 -12 -71 28 -71 38 0 53 53 22 79 -19 16 -32 14
-50 -8z"/>
<path d="M4100 7286 c-132 -48 -163 -206 -58 -294 70 -59 116 -65 197 -23 181
94 53 387 -139 317z"/>
<path d="M1618 7228 c-17 -21 -18 -36 -2 -52 27 -27 84 -6 84 31 0 42 -53 55
-82 21z"/>
<path d="M2667 7209 c-17 -44 25 -85 56 -54 25 25 9 85 -23 85 -12 0 -27 -14
-33 -31z"/>
<path d="M1790 7176 c-64 -37 -89 -81 -89 -158 -2 -192 270 -228 341 -44 51
134 -125 275 -252 202z"/>
<path d="M2080 7139 c0 -29 11 -40 35 -35 52 10 58 76 6 76 -28 0 -41 -13 -41
-41z"/>
<path d="M2400 7167 c-182 -60 -255 -324 -141 -509 35 -56 61 -105 57 -108 -3
-3 -55 -26 -116 -51 -158 -67 -198 -96 -238 -177 -53 -105 -66 -174 -37 -197
114 -91 1014 -82 1050 10 40 104 -82 272 -253 348 -72 33 -134 62 -138 66 -4
4 22 63 58 131 58 112 62 131 41 189 -13 35 -23 84 -23 108 0 85 -56 160 -135
182 -81 23 -81 22 -125 8z m82 -333 c8 -50 3 -75 -15 -82 -31 -12 -42 2 -47
68 -11 125 42 137 62 14z m100 -494 c44 -83 45 -87 11 -74 -20 8 -33 3 -33
-12 0 -18 -35 -21 -135 -13 -199 18 -218 31 -140 96 34 29 84 74 109 99 l47
46 57 -46 c32 -25 70 -68 84 -96z"/>
<path d="M4493 7091 c-6 -17 -3 -35 8 -42 11 -7 6 -25 -12 -43 -21 -21 -25
-38 -12 -51 28 -28 90 -1 77 33 -6 15 -1 37 10 48 27 27 6 84 -31 84 -16 0
-34 -13 -40 -29z"/>
<path d="M2741 7061 c-21 -38 -10 -101 18 -101 18 0 15 -122 -4 -153 -21 -34
41 -79 69 -51 16 16 16 30 -3 53 -20 24 -20 38 -2 59 17 21 17 32 0 42 -15 10
-8 27 19 53 48 44 53 78 18 113 -36 36 -92 29 -115 -15z"/>
<path d="M4367 7068 c-7 -17 2 -46 20 -64 41 -41 103 7 82 62 -17 43 -86 44
-102 2z"/>
<path d="M3221 7031 c-18 -21 -18 -39 -1 -71 41 -77 165 -15 134 67 -16 41
-101 43 -133 4z"/>
<path d="M2090 7000 c-17 -27 6 -60 41 -60 16 0 29 18 29 40 0 41 -48 55 -70
20z"/>
<path d="M2920 6980 c-82 -82 -21 -220 97 -220 72 0 123 56 123 135 0 112
-139 166 -220 85z"/>
<path d="M3887 6989 c-17 -44 25 -85 56 -54 25 25 9 85 -23 85 -12 0 -27 -14
-33 -31z"/>
<path d="M4070 6900 c-17 -27 6 -60 41 -60 16 0 29 18 29 40 0 41 -48 55 -70
20z"/>
<path d="M4201 6881 c-33 -61 -25 -98 29 -133 93 -61 204 70 126 148 -38 38
-132 29 -155 -15z"/>
<path d="M4687 6889 c-7 -17 4 -48 24 -70 20 -22 25 -39 12 -39 -35 0 -28 -59
9 -74 41 -15 73 34 44 68 -15 19 -14 34 2 53 12 16 17 43 10 60 -16 42 -85 43
-101 2z"/>
<path d="M2034 6887 c-29 -28 -13 -67 27 -67 28 0 40 11 35 33 -7 37 -41 56
-62 34z"/>
<path d="M4454 6864 c-50 -55 -65 -192 -26 -247 44 -63 42 -69 -44 -103 -135
-54 -200 -181 -110 -216 62 -23 408 -30 502 -9 114 25 59 167 -85 222 l-89 34
37 74 c88 171 -67 376 -185 245z"/>
<path d="M1670 6799 c-8 -12 -5 -32 6 -43 27 -27 90 -4 79 29 -11 33 -68 43
-85 14z"/>
<path d="M1783 6787 c9 -44 67 -50 67 -7 0 16 -17 33 -37 37 -27 5 -35 -3 -30
-30z"/>
<path d="M1924 6789 c-82 -58 -46 -169 56 -169 64 0 100 34 100 93 0 38 -64
107 -100 107 -6 0 -31 -14 -56 -31z"/>
<path d="M2830 6707 c-39 -39 -32 -125 12 -153 51 -32 136 0 150 57 25 98 -91
167 -162 96z"/>
<path d="M1674 6708 c-28 -28 -13 -107 23 -127 53 -28 109 17 100 80 -7 49
-89 80 -123 47z"/>
<path d="M2700 6600 c0 -30 10 -41 35 -36 19 4 35 20 35 36 0 16 -16 32 -35
36 -25 5 -35 -6 -35 -36z"/>
<path d="M4248 6611 c-16 -40 7 -71 53 -71 28 0 39 14 39 50 0 56 -73 73 -92
21z"/>
<path d="M4686 6608 c-14 -37 35 -75 61 -49 22 22 2 81 -27 81 -12 0 -27 -14
-34 -32z"/>
<path d="M2030 6599 c-8 -12 -5 -32 6 -43 27 -27 90 -4 79 29 -11 33 -68 43
-85 14z"/>
<path d="M1929 6578 c-19 -30 22 -66 59 -51 18 6 26 24 20 42 -14 36 -59 41
-79 9z"/>
<path d="M1804 6536 c-50 -50 -13 -136 59 -136 30 0 77 53 77 87 0 52 -98 87
-136 49z"/>
<path d="M2927 6509 c-17 -44 25 -85 56 -54 25 25 9 85 -23 85 -12 0 -27 -14
-33 -31z"/>
<path d="M2984 6405 c4 -19 20 -35 36 -35 16 0 32 16 36 35 5 25 -6 35 -36 35
-30 0 -41 -10 -36 -35z"/>
<path d="M3154 6387 c-29 -28 -13 -67 27 -67 28 0 40 11 35 33 -7 37 -41 56
-62 34z"/>
<path d="M1732 6348 c-8 -20 -1 -47 14 -62 38 -39 98 -11 90 42 -8 53 -85 68
-104 20z"/>
<path d="M3259 6349 c-42 -51 27 -111 74 -64 33 32 11 95 -33 95 -8 0 -27 -14
-41 -31z"/>
<path d="M3383 6327 c9 -44 67 -50 67 -7 0 16 -17 33 -37 37 -27 5 -35 -3 -30
-30z"/>
<path d="M3770 6328 c-61 -62 12 -162 85 -116 61 39 35 148 -35 148 -9 0 -32
-15 -50 -32z"/>
<path d="M3028 6311 c-16 -40 7 -71 51 -71 38 0 69 51 50 82 -18 29 -89 21
-101 -11z"/>
<path d="M3524 6316 c-47 -47 -6 -136 63 -136 17 0 73 62 73 80 0 58 -95 97
-136 56z"/>
<path d="M3983 6283 c-54 -54 -71 -192 -32 -252 40 -61 28 -82 -62 -111 -76
-26 -184 -200 -123 -200 4 0 60 -10 125 -22 152 -28 447 -6 463 34 22 58 -36
145 -126 187 -100 47 -98 43 -58 121 81 157 -73 357 -187 243z"/>
<path d="M1627 6229 c-16 -41 19 -75 66 -65 20 4 47 -5 59 -21 25 -33 68 -15
68 28 0 16 -17 29 -38 29 -21 0 -43 14 -49 30 -15 40 -91 39 -106 -1z"/>
<path d="M3331 6229 c-60 -61 -16 -169 69 -169 88 0 129 108 63 167 -46 41
-91 42 -132 2z"/>
<path d="M4234 6247 c-28 -27 -13 -70 21 -63 19 4 35 19 35 35 0 31 -35 49
-56 28z"/>
<path d="M3113 6203 c-43 -47 -42 -89 4 -130 65 -59 163 -19 163 67 0 88 -108
129 -167 63z"/>
<path d="M4334 6227 c-24 -23 -16 -82 13 -93 40 -15 78 16 70 58 -8 39 -58 60
-83 35z"/>
<path d="M4451 6221 c-18 -28 4 -61 42 -61 17 0 27 14 23 33 -7 41 -47 57 -65
28z"/>
<path d="M4594 6207 c-29 -28 -13 -67 27 -67 28 0 40 11 35 33 -7 37 -41 56
-62 34z"/>
<path d="M3600 6140 c0 -30 10 -41 35 -36 19 4 35 20 35 36 0 16 -16 32 -35
36 -25 5 -35 -6 -35 -36z"/>
<path d="M3728 6151 c-22 -55 1 -101 50 -101 55 0 94 50 76 97 -16 41 -111 44
-126 4z"/>
<path d="M4240 6120 c0 -30 10 -41 35 -36 19 4 35 20 35 36 0 16 -16 32 -35
36 -25 5 -35 -6 -35 -36z"/>
<path d="M4404 6089 c-56 -39 -60 -148 -7 -196 127 -115 302 66 177 184 -55
51 -108 55 -170 12z"/>
<path d="M4620 6079 c0 -29 11 -40 35 -35 52 10 58 76 6 76 -28 0 -41 -13 -41
-41z"/>
<path d="M3012 6049 c-6 -18 2 -36 20 -42 37 -15 78 21 59 51 -20 32 -65 27
-79 -9z"/>
<path d="M1613 6037 c-44 -25 -93 -135 -93 -207 0 -28 -10 -67 -23 -87 -17
-28 -15 -49 9 -95 113 -210 113 -210 -30 -261 -171 -61 -311 -247 -269 -357
27 -70 683 -101 943 -46 206 45 148 252 -106 378 -80 40 -149 77 -155 82 -14
14 46 150 73 167 58 36 -24 387 -99 427 -51 28 -202 27 -250 -1z m147 -296
c11 -62 8 -81 -13 -81 -19 0 -27 28 -27 93 0 109 19 103 40 -12z m95 -461 c46
-44 93 -80 104 -80 12 0 21 -8 21 -17 0 -41 -342 -64 -412 -28 -21 11 -49 16
-63 11 -14 -5 -25 -1 -25 10 0 11 23 25 50 32 28 7 50 27 50 44 0 17 8 25 19
19 10 -6 30 5 45 26 25 36 64 58 107 61 12 1 58 -34 104 -78z"/>
<path d="M3489 5991 c-37 -88 -36 -170 2 -220 41 -54 38 -60 -42 -89 -186 -67
-208 -212 -36 -233 135 -17 443 -1 469 25 42 42 -24 146 -124 197 l-97 49 39
65 c70 120 7 275 -113 275 -60 0 -73 -9 -98 -69z"/>
<path d="M2920 6000 c0 -30 10 -41 35 -36 19 4 35 20 35 36 0 16 -16 32 -35
36 -25 5 -35 -6 -35 -36z"/>
<path d="M4251 6021 c-18 -28 4 -61 42 -61 17 0 27 14 23 33 -7 41 -47 57 -65
28z"/>
<path d="M3760 5980 c0 -30 10 -41 35 -36 19 4 35 20 35 36 0 16 -16 32 -35
36 -25 5 -35 -6 -35 -36z"/>
<path d="M2028 5971 c-16 -40 7 -71 51 -71 39 0 61 34 46 75 -12 34 -84 32
-97 -4z"/>
<path d="M2230 5980 c-7 -11 -8 -28 -2 -37 14 -22 283 -19 279 3 -14 58 -22
64 -62 40 -30 -18 -45 -18 -63 0 -18 18 -29 17 -44 -6 -16 -23 -24 -24 -31 -5
-12 30 -60 33 -77 5z"/>
<path d="M2630 5979 c-8 -12 -5 -32 6 -43 27 -27 90 -4 79 29 -11 33 -68 43
-85 14z"/>
<path d="M3094 5987 c-28 -27 -13 -70 21 -63 19 4 35 19 35 35 0 31 -35 49
-56 28z"/>
<path d="M3204 5976 c-42 -42 -29 -135 21 -154 93 -35 168 40 133 133 -19 50
-112 63 -154 21z"/>
<path d="M2541 5941 c-38 -24 -16 -91 29 -91 26 0 42 15 46 42 7 47 -35 73
-75 49z"/>
<path d="M2144 5905 c4 -19 20 -35 36 -35 16 0 32 16 36 35 5 25 -6 35 -36 35
-30 0 -41 -10 -36 -35z"/>
<path d="M2788 5877 c-51 -25 -108 -118 -108 -179 0 -25 -10 -74 -23 -108 -20
-57 -16 -76 40 -178 35 -63 63 -119 63 -124 0 -5 -67 -40 -149 -77 -197 -90
-321 -291 -223 -362 118 -86 987 -78 1041 10 55 89 -87 275 -274 360 l-134 61
61 115 c152 279 -45 603 -294 482z m122 -257 c-7 -11 -3 -20 9 -20 27 0 28
-113 1 -130 -11 -7 -20 -1 -20 14 -1 19 -6 18 -22 -4 -16 -23 -19 -14 -10 38
7 37 12 79 12 95 0 15 10 27 21 27 12 0 16 -9 9 -20z m23 -450 c6 -16 24 -30
39 -30 15 0 28 -9 28 -20 0 -11 14 -20 31 -20 17 0 26 -8 20 -18 -6 -10 2 -23
18 -29 48 -18 31 -92 -18 -75 -23 8 -101 12 -175 8 -185 -10 -208 49 -62 159
83 63 103 67 119 25z"/>
<path d="M2030 5859 c-8 -12 -5 -32 6 -43 27 -27 90 -4 79 29 -11 33 -68 43
-85 14z"/>
<path d="M2204 5829 c-140 -99 -132 -323 15 -399 201 -103 425 99 331 298 -58
122 -240 175 -346 101z"/>
<path d="M4965 5846 c-36 -13 -31 -100 8 -114 37 -14 87 20 87 60 0 32 -60 66
-95 54z"/>
<path d="M4390 5819 c-8 -12 -5 -32 6 -43 27 -27 90 -4 79 29 -11 33 -68 43
-85 14z"/>
<path d="M3340 5780 c0 -30 10 -41 35 -36 19 4 35 20 35 36 0 16 -16 32 -35
36 -25 5 -35 -6 -35 -36z"/>
<path d="M3234 5767 c-24 -23 -16 -82 13 -93 40 -15 78 16 70 58 -8 39 -58 60
-83 35z"/>
<path d="M4833 5767 c-29 -30 -12 -87 26 -87 51 0 71 34 40 71 -26 32 -45 36
-66 16z"/>
<path d="M1315 5688 c-23 -22 9 -68 47 -68 25 0 38 14 38 40 0 38 -57 57 -85
28z"/>
<path d="M4703 5682 c-40 -25 -19 -91 32 -98 54 -8 80 43 45 86 -28 34 -39 36
-77 12z"/>
<path d="M3922 5633 c-24 -29 -10 -53 31 -53 30 0 37 52 9 69 -9 6 -27 -1 -40
-16z"/>
<path d="M4240 5620 c0 -27 13 -40 40 -40 27 0 40 13 40 40 0 27 -13 40 -40
40 -27 0 -40 -13 -40 -40z"/>
<path d="M4104 5616 c-36 -36 -29 -92 15 -115 74 -40 140 26 100 100 -23 44
-79 51 -115 15z"/>
<path d="M1247 5569 c-17 -44 25 -85 56 -54 25 25 9 85 -23 85 -12 0 -27 -14
-33 -31z"/>
<path d="M1354 5534 c-15 -41 16 -79 58 -71 54 11 50 85 -4 93 -24 3 -48 -6
-54 -22z"/>
<path d="M3944 5536 c-35 -35 11 -85 49 -54 21 18 27 14 27 -20 0 -29 13 -42
40 -42 49 0 53 57 5 74 -19 6 -49 24 -66 39 -24 20 -37 21 -55 3z"/>
<path d="M1100 5500 c-69 -69 -30 -165 68 -165 70 0 97 27 97 97 0 98 -96 137
-165 68z"/>
<path d="M1990 5519 c-8 -12 -5 -32 6 -43 27 -27 90 -4 79 29 -11 33 -68 43
-85 14z"/>
<path d="M3880 5419 c0 -13 -17 -16 -40 -9 -27 9 -44 2 -53 -20 -19 -49 21
-79 58 -43 17 18 37 23 47 13 27 -27 76 11 62 48 -14 36 -74 44 -74 11z"/>
<path d="M3188 5391 c-6 -16 -8 -45 -4 -65 9 -50 123 -50 132 0 15 74 -102
134 -128 65z"/>
<path d="M3354 5407 c-29 -28 -13 -67 27 -67 28 0 40 11 35 33 -7 37 -41 56
-62 34z"/>
<path d="M2463 5382 c-40 -25 -20 -92 27 -92 29 0 40 13 40 48 0 54 -26 70
-67 44z"/>
<path d="M3540 5360 c0 -30 10 -41 35 -36 19 4 35 20 35 36 0 16 -16 32 -35
36 -25 5 -35 -6 -35 -36z"/>
<path d="M3652 5368 c-7 -19 -5 -43 5 -53 31 -31 93 -8 93 35 0 52 -80 66 -98
18z"/>
<path d="M2267 5349 c-17 -44 25 -85 56 -54 25 25 9 85 -23 85 -12 0 -27 -14
-33 -31z"/>
<path d="M2564 5345 c10 -52 76 -58 76 -6 0 28 -13 41 -41 41 -29 0 -40 -11
-35 -35z"/>
<path d="M3440 5340 c0 -30 10 -41 35 -36 19 4 35 20 35 36 0 16 -16 32 -35
36 -25 5 -35 -6 -35 -36z"/>
<path d="M992 5328 c-8 -20 -1 -47 14 -62 38 -39 98 -11 90 42 -8 53 -85 68
-104 20z"/>
<path d="M3310 5279 c-8 -12 -5 -32 6 -43 27 -27 90 -4 79 29 -11 33 -68 43
-85 14z"/>
<path d="M2313 5267 c-27 -28 -12 -67 27 -67 27 0 40 13 40 40 0 39 -39 54
-67 27z"/>
<path d="M3441 5251 c-42 -50 -18 -138 43 -159 100 -35 178 83 105 157 -40 39
-116 40 -148 2z"/>
<path d="M900 5171 c-52 -63 -61 -177 -19 -247 l39 -66 -91 -40 c-103 -46
-177 -158 -133 -202 29 -29 323 -46 473 -27 164 20 138 173 -39 231 -81 27
-80 23 -38 104 85 165 -81 380 -192 247z"/>
<path d="M692 5128 c-8 -20 -1 -47 14 -62 38 -39 98 -11 90 42 -8 53 -85 68
-104 20z"/>
<path d="M3473 5045 c-6 -9 -3 -29 6 -44 21 -33 88 -11 76 24 -10 30 -67 44
-82 20z"/>
<path d="M672 4994 c-72 -52 8 -169 83 -122 65 41 39 148 -35 148 -7 0 -29
-12 -48 -26z"/>
<path d="M1154 4927 c-28 -27 -13 -70 21 -63 19 4 35 19 35 35 0 31 -35 49
-56 28z"/>
<path d="M2186 4888 c-15 -40 34 -73 67 -45 30 25 13 77 -26 77 -15 0 -34 -14
-41 -32z"/>
<path d="M3492 4888 c-8 -20 -1 -47 14 -62 38 -39 98 -11 90 42 -8 53 -85 68
-104 20z"/>
<path d="M1229 4879 c-19 -31 33 -85 57 -61 14 14 29 9 46 -14 20 -26 31 -29
49 -10 36 35 7 91 -39 77 -21 -7 -44 -3 -51 8 -17 27 -45 27 -62 0z"/>
<path d="M1424 4865 c4 -19 20 -35 36 -35 16 0 32 16 36 35 5 25 -6 35 -36 35
-30 0 -41 -10 -36 -35z"/>
<path d="M1954 4887 c-29 -28 -13 -67 27 -67 28 0 40 11 35 33 -7 37 -41 56
-62 34z"/>
<path d="M2044 4865 c4 -19 20 -35 36 -35 16 0 32 16 36 35 5 25 -6 35 -36 35
-30 0 -41 -10 -36 -35z"/>
<path d="M580 4860 c-24 -15 -25 -26 -6 -57 17 -28 17 -44 1 -60 -30 -30 10
-73 52 -57 20 8 29 37 26 96 -3 89 -23 110 -73 78z"/>
<path d="M1520 4840 c0 -30 10 -41 35 -36 19 4 35 20 35 36 0 16 -16 32 -35
36 -25 5 -35 -6 -35 -36z"/>
<path d="M1621 4821 c-33 -61 -25 -98 29 -133 93 -61 204 70 126 148 -38 38
-132 29 -155 -15z"/>
<path d="M1844 4825 c10 -52 76 -58 76 -6 0 28 -13 41 -41 41 -29 0 -40 -11
-35 -35z"/>
<path d="M1393 4763 c-44 -48 -42 -89 8 -134 90 -81 215 52 129 138 -43 43
-96 42 -137 -4z"/>
<path d="M2320 4741 c0 -28 13 -41 41 -41 29 0 40 11 35 35 -10 52 -76 58 -76
6z"/>
<path d="M3435 4758 c-40 -23 -47 -118 -11 -154 38 -38 132 -29 155 15 53 98
-48 195 -144 139z"/>
<path d="M1940 4705 c-42 -38 -65 -80 -72 -135 -6 -44 -21 -101 -33 -126 -19
-38 -13 -65 36 -159 33 -63 62 -121 66 -129 3 -9 -62 -47 -145 -84 -198 -91
-322 -291 -224 -363 96 -70 704 -86 942 -24 115 30 124 70 48 228 -40 84 -61
98 -262 184 l-94 41 61 112 c65 118 67 175 15 375 -36 138 -224 183 -338 80z
m185 -238 c-14 -6 -25 -37 -25 -70 0 -82 -49 -64 -53 20 -3 56 2 63 50 61 29
0 42 -6 28 -11z m7 -449 c21 -24 58 -50 83 -60 57 -22 59 -91 3 -109 -91 -29
-235 -23 -287 11 l-52 34 90 83 c104 96 112 98 163 41z"/>
<path d="M2420 4720 c0 -30 10 -41 35 -36 19 4 35 20 35 36 0 16 -16 32 -35
36 -25 5 -35 -6 -35 -36z"/>
<path d="M2594 4727 c-28 -27 -13 -70 21 -63 19 4 35 19 35 35 0 31 -35 49
-56 28z"/>
<path d="M3107 4709 c-17 -44 25 -85 56 -54 25 25 9 85 -23 85 -12 0 -27 -14
-33 -31z"/>
<path d="M4487 4688 c-15 -37 21 -78 51 -59 32 20 27 65 -9 79 -18 6 -36 -2
-42 -20z"/>
<path d="M4613 4695 c-44 -32 -24 -95 30 -95 50 0 70 55 34 92 -24 23 -35 24
-64 3z"/>
<path d="M2728 4685 c-68 -46 -90 -208 -39 -276 42 -55 39 -63 -36 -88 -138
-46 -214 -186 -119 -222 69 -27 516 -17 545 12 37 37 -41 155 -132 199 l-83
40 35 68 c80 155 -45 351 -171 267z"/>
<path d="M2964 4667 c-10 -18 -15 -49 -9 -68 18 -71 113 -68 136 4 25 78 -88
135 -127 64z"/>
<path d="M3259 4669 c-31 -38 -8 -94 36 -85 44 8 57 87 18 102 -17 7 -41 -1
-54 -17z"/>
<path d="M4380 4661 c0 -21 7 -43 16 -48 28 -18 70 22 58 55 -18 45 -74 40
-74 -7z"/>
<path d="M1714 4647 c-29 -28 -13 -67 27 -67 28 0 40 11 35 33 -7 37 -41 56
-62 34z"/>
<path d="M2444 4636 c-61 -61 -13 -156 80 -156 72 0 112 72 77 137 -25 48
-117 59 -157 19z"/>
<path d="M3609 4618 c-25 -39 40 -86 69 -50 14 17 20 40 13 51 -17 27 -65 27
-82 -1z"/>
<path d="M4289 4618 c-25 -39 40 -86 69 -50 14 17 20 40 13 51 -17 27 -65 27
-82 -1z"/>
<path d="M1545 4599 c-158 -63 -54 -300 105 -239 122 46 71 285 -54 259 -3 -1
-26 -10 -51 -20z"/>
<path d="M1310 4580 c-17 -27 6 -60 41 -60 16 0 29 18 29 40 0 41 -48 55 -70
20z"/>
<path d="M4451 4569 c-41 -42 -39 -74 7 -131 52 -65 149 -35 158 49 12 102
-92 154 -165 82z"/>
<path d="M3090 4560 c-22 -36 8 -55 89 -55 66 0 81 8 81 38 0 42 -40 49 -76
13 -19 -19 -24 -19 -24 0 0 29 -53 32 -70 4z"/>
<path d="M3320 4550 c-20 -24 -19 -32 7 -42 42 -16 74 7 60 43 -14 37 -36 37
-67 -1z"/>
<path d="M4644 4545 c10 -52 76 -58 76 -6 0 28 -13 41 -41 41 -29 0 -40 -11
-35 -35z"/>
<path d="M681 4521 c-22 -40 -9 -101 21 -101 10 0 7 -18 -6 -40 -19 -29 -19
-45 -2 -62 31 -31 72 -2 60 45 -7 24 4 45 28 58 43 23 50 79 14 115 -36 36
-92 29 -115 -15z"/>
<path d="M1220 4520 c0 -30 10 -41 35 -36 19 4 35 20 35 36 0 16 -16 32 -35
36 -25 5 -35 -6 -35 -36z"/>
<path d="M843 4507 c4 -20 21 -37 37 -37 43 0 37 58 -7 67 -27 5 -35 -3 -30
-30z"/>
<path d="M940 4500 c0 -30 10 -41 35 -36 19 4 35 20 35 36 0 16 -16 32 -35 36
-25 5 -35 -6 -35 -36z"/>
<path d="M3406 4508 c-14 -37 35 -75 61 -49 22 22 2 81 -27 81 -12 0 -27 -14
-34 -32z"/>
<path d="M4333 4527 c-27 -28 -12 -67 27 -67 27 0 40 13 40 40 0 39 -39 54
-67 27z"/>
<path d="M1114 4507 c-24 -23 -16 -82 13 -93 40 -15 78 16 70 58 -8 39 -58 60
-83 35z"/>
<path d="M1308 4472 c-16 -42 7 -72 55 -72 30 0 38 11 33 45 -7 52 -71 72 -88
27z"/>
<path d="M3027 4470 c-17 -46 9 -94 48 -86 43 8 58 75 22 98 -39 25 -57 22
-70 -12z"/>
<path d="M3614 4460 c-88 -69 -110 -237 -46 -344 l51 -85 -120 -55 c-127 -57
-234 -209 -182 -261 72 -72 714 -72 786 0 52 52 -55 205 -182 260 l-121 52 51
87 c125 214 -61 484 -237 346z"/>
<path d="M2391 4461 c-18 -28 4 -61 42 -61 17 0 27 14 23 33 -7 41 -47 57 -65
28z"/>
<path d="M3245 4464 c-98 -15 -161 -185 -99 -266 106 -139 314 -74 314 98 0
114 -93 187 -215 168z"/>
<path d="M994 4414 c-15 -41 16 -79 58 -71 54 11 50 85 -4 93 -24 3 -48 -6
-54 -22z"/>
<path d="M2494 4427 c-28 -27 -13 -70 21 -63 19 4 35 19 35 35 0 31 -35 49
-56 28z"/>
<path d="M3934 4427 c-29 -28 -13 -67 27 -67 28 0 40 11 35 33 -7 37 -41 56
-62 34z"/>
<path d="M4061 4401 c-33 -21 -13 -81 26 -81 16 0 34 13 40 29 14 37 -31 73
-66 52z"/>
<path d="M810 4368 c-79 -80 45 -215 129 -139 46 41 54 110 17 147 -34 34
-107 30 -146 -8z"/>
<path d="M1389 4378 c-19 -30 22 -66 59 -51 18 6 26 24 20 42 -14 36 -59 41
-79 9z"/>
<path d="M4161 4361 c-26 -48 -9 -96 42 -112 75 -24 129 71 73 127 -36 36 -92
29 -115 -15z"/>
<path d="M2402 4332 c-38 -45 32 -106 74 -65 34 34 19 93 -23 93 -15 0 -39
-13 -51 -28z"/>
<path d="M1110 4297 c-120 -95 -132 -252 -28 -356 103 -103 270 -85 354 39
139 205 -132 469 -326 317z"/>
<path d="M1604 4309 c-82 -58 -46 -169 56 -169 64 0 100 34 100 93 0 38 -64
107 -100 107 -6 0 -31 -14 -56 -31z"/>
<path d="M4568 4313 c-24 -63 0 -103 62 -103 53 0 60 7 60 60 0 68 -99 103
-122 43z"/>
<path d="M1464 4285 c4 -19 20 -35 36 -35 16 0 32 16 36 35 5 25 -6 35 -36 35
-30 0 -41 -10 -36 -35z"/>
<path d="M3968 4291 c-16 -40 7 -71 51 -71 39 0 61 34 46 75 -12 34 -84 32
-97 -4z"/>
<path d="M4720 4220 c0 -27 13 -40 40 -40 27 0 40 13 40 40 0 27 -13 40 -40
40 -27 0 -40 -13 -40 -40z"/>
<path d="M2334 4227 c-29 -28 -13 -67 27 -67 28 0 40 11 35 33 -7 37 -41 56
-62 34z"/>
<path d="M4065 4217 c-34 -34 -32 -127 4 -156 78 -65 199 44 143 129 -31 47
-112 62 -147 27z"/>
<path d="M4474 4207 c-26 -26 -14 -83 19 -96 42 -16 73 14 64 62 -8 38 -58 59
-83 34z"/>
<path d="M794 4187 c-29 -28 -13 -67 27 -67 28 0 40 11 35 33 -7 37 -41 56
-62 34z"/>
<path d="M884 4145 c4 -19 20 -35 36 -35 16 0 32 16 36 35 5 25 -6 35 -36 35
-30 0 -41 -10 -36 -35z"/>
<path d="M4284 4156 c-76 -76 11 -203 109 -158 87 39 53 182 -43 182 -23 0
-53 -11 -66 -24z"/>
<path d="M4623 4148 c-90 -63 -25 -188 84 -161 69 18 92 99 42 154 -43 47 -66
49 -126 7z"/>
<path d="M3406 4102 c-6 -25 -27 -42 -50 -42 -26 0 -37 -11 -32 -33 9 -51 57
-57 70 -9 6 25 27 42 50 42 26 0 37 11 32 33 -9 51 -57 57 -70 9z"/>
<path d="M1522 4101 c-30 -18 -16 -81 18 -81 29 0 49 59 27 81 -10 10 -29 10
-45 0z"/>
<path d="M3129 4098 c-7 -12 -4 -31 7 -42 25 -25 64 -4 64 35 0 34 -51 39 -71
7z"/>
<path d="M3914 4107 c-29 -28 -13 -67 27 -67 28 0 40 11 35 33 -7 37 -41 56
-62 34z"/>
<path d="M810 4079 c-8 -12 -5 -32 6 -43 27 -27 90 -4 79 29 -11 33 -68 43
-85 14z"/>
<path d="M3231 4081 c-18 -28 4 -61 42 -61 17 0 27 14 23 33 -7 41 -47 57 -65
28z"/>
<path d="M910 4040 c-17 -27 6 -60 41 -60 16 0 29 18 29 40 0 41 -48 55 -70
20z"/>
<path d="M3014 4047 c-28 -27 -13 -70 21 -63 19 4 35 19 35 35 0 31 -35 49
-56 28z"/>
<path d="M4464 4025 c4 -19 20 -35 36 -35 16 0 32 16 36 35 5 25 -6 35 -36 35
-30 0 -41 -10 -36 -35z"/>
<path d="M2610 4020 c-17 -27 6 -60 41 -60 16 0 29 18 29 40 0 41 -48 55 -70
20z"/>
<path d="M2900 4000 c0 -30 10 -41 35 -36 19 4 35 20 35 36 0 16 -16 32 -35
36 -25 5 -35 -6 -35 -36z"/>
<path d="M3104 3996 c-46 -46 -29 -136 31 -162 33 -14 55 -40 55 -62 0 -21 11
-42 25 -47 34 -11 57 55 26 75 -20 11 -17 27 9 67 62 95 -66 209 -146 129z"/>
<path d="M4070 4000 c-16 -26 6 -60 39 -60 29 0 55 49 36 68 -18 19 -61 14
-75 -8z"/>
<path d="M4767 3989 c-17 -44 25 -85 56 -54 25 25 9 85 -23 85 -12 0 -27 -14
-33 -31z"/>
<path d="M2730 3968 c-79 -80 45 -215 129 -139 46 41 54 110 17 147 -34 34
-107 30 -146 -8z"/>
<path d="M4170 3980 c-17 -27 6 -60 41 -60 16 0 29 18 29 40 0 41 -48 55 -70
20z"/>
<path d="M923 3934 c-17 -21 -16 -36 3 -62 34 -46 98 -21 90 35 -7 51 -60 66
-93 27z"/>
<path d="M4670 3940 c-17 -27 6 -60 41 -60 16 0 29 18 29 40 0 41 -48 55 -70
20z"/>
<path d="M4854 3947 c-31 -31 -13 -87 27 -87 32 0 40 11 35 43 -6 46 -38 68
-62 44z"/>
<path d="M4315 3898 c-46 -26 -95 -123 -95 -186 0 -28 -10 -73 -23 -101 -20
-44 -15 -67 41 -174 72 -137 74 -133 -78 -196 -164 -68 -258 -182 -260 -316
-1 -113 596 -160 965 -77 197 44 111 272 -146 387 l-158 71 62 113 62 113 -25
147 c-36 217 -186 312 -345 219z m162 -306 c4 -21 -8 -46 -25 -56 -18 -10 -27
-29 -21 -42 7 -13 -2 -7 -20 15 -36 45 -42 100 -8 79 16 -10 20 -3 10 20 -9
26 -4 33 22 28 19 -3 38 -23 42 -44z m33 -406 c0 -11 29 -45 65 -75 36 -30 65
-62 65 -71 0 -44 -254 -57 -356 -18 l-50 19 68 72 c90 94 208 135 208 73z"/>
<path d="M2920 3860 c0 -30 10 -41 35 -36 19 4 35 20 35 36 0 16 -16 32 -35
36 -25 5 -35 -6 -35 -36z"/>
<path d="M5026 3848 c-12 -34 30 -73 59 -55 10 6 30 -6 45 -26 21 -29 33 -32
51 -13 31 30 7 94 -30 79 -15 -6 -33 2 -39 18 -15 39 -70 37 -86 -3z"/>
<path d="M1010 3839 c-8 -12 -5 -32 6 -43 27 -27 90 -4 79 29 -11 33 -68 43
-85 14z"/>
<path d="M4728 3811 c-18 -47 7 -95 47 -87 47 9 47 103 0 112 -19 4 -41 -7
-47 -25z"/>
<path d="M1108 3791 c-18 -47 7 -95 47 -87 22 4 35 25 35 56 0 57 -63 81 -82
31z"/>
<path d="M1400 3781 c0 -28 13 -41 41 -41 52 0 46 66 -6 76 -24 5 -35 -6 -35
-35z"/>
<path d="M2669 3799 c-22 -36 32 -83 64 -57 21 18 22 30 5 51 -27 32 -51 35
-69 6z"/>
<path d="M1250 3768 c-41 -42 -31 -91 25 -119 30 -15 37 -29 24 -42 -14 -14
-10 -29 11 -47 46 -38 89 6 56 57 -14 23 -15 47 -4 65 48 77 -47 150 -112 86z"/>
<path d="M2822 3709 c-39 -33 -65 -78 -73 -125 -7 -41 -22 -102 -34 -136 -18
-53 -13 -76 42 -176 35 -63 63 -119 63 -124 0 -6 -66 -40 -147 -77 -207 -94
-347 -349 -210 -380 313 -71 900 -62 1007 16 95 70 -47 278 -254 370 l-134 60
62 114 c162 298 -88 654 -322 458z m157 -314 c-1 -77 -6 -94 -19 -65 -24 56
-24 170 0 170 11 0 19 -47 19 -105z m21 -357 c0 -27 104 -117 135 -117 14 -1
25 -14 25 -29 0 -16 11 -33 25 -38 14 -6 5 -9 -20 -8 -25 2 -45 10 -45 18 0 9
-10 16 -21 16 -12 0 -17 -8 -11 -17 17 -26 -166 -43 -258 -24 -44 9 -62 18
-40 21 39 4 39 4 -2 17 -40 12 -39 16 25 75 37 34 67 53 67 42 0 -10 19 4 42
33 39 50 78 55 78 11z"/>
<path d="M4842 3724 c-29 -54 15 -110 79 -101 75 11 71 124 -5 133 -36 4 -60
-6 -74 -32z"/>
<path d="M5174 3728 c-28 -28 -13 -107 23 -127 53 -28 109 17 100 80 -7 49
-89 80 -123 47z"/>
<path d="M1394 3687 c-29 -28 -13 -67 27 -67 28 0 40 11 35 33 -7 37 -41 56
-62 34z"/>
<path d="M5020 3660 c0 -30 10 -41 35 -36 19 4 35 20 35 36 0 16 -16 32 -35
36 -25 5 -35 -6 -35 -36z"/>
<path d="M2583 3622 c-40 -25 -20 -92 27 -92 29 0 40 13 40 48 0 54 -26 70
-67 44z"/>
<path d="M4050 3620 c-17 -27 6 -60 41 -60 16 0 29 18 29 40 0 41 -48 55 -70
20z"/>
<path d="M1647 3589 c-17 -44 25 -85 56 -54 25 25 9 85 -23 85 -12 0 -27 -14
-33 -31z"/>
<path d="M2462 3593 c-17 -21 -16 -33 3 -49 35 -29 84 3 69 44 -16 39 -42 41
-72 5z"/>
<path d="M3430 3600 c-17 -27 6 -60 41 -60 16 0 29 18 29 40 0 41 -48 55 -70
20z"/>
<path d="M3722 3593 c-17 -21 -16 -33 5 -51 21 -17 33 -16 51 5 17 21 16 33
-5 51 -21 17 -33 16 -51 -5z"/>
<path d="M1767 3564 c-6 -22 -29 -45 -51 -51 -46 -12 -39 -60 11 -69 22 -5 33
7 33 35 0 28 13 41 41 41 28 0 40 11 35 33 -9 50 -57 57 -69 11z"/>
<path d="M3314 3587 c-24 -23 -16 -82 13 -93 40 -15 78 16 70 58 -8 39 -58 60
-83 35z"/>
<path d="M3900 3560 c-68 -68 -29 -160 67 -160 95 0 128 113 49 169 -58 40
-68 39 -116 -9z"/>
<path d="M4767 3569 c-7 -18 -3 -41 9 -53 15 -15 14 -32 -2 -58 -17 -28 -17
-43 0 -60 30 -30 72 -2 61 41 -5 19 3 51 17 71 20 27 22 44 5 63 -30 36 -76
34 -90 -4z"/>
<path d="M1980 3540 c0 -30 10 -41 35 -36 19 4 35 20 35 36 0 16 -16 32 -35
36 -25 5 -35 -6 -35 -36z"/>
<path d="M2124 3545 c4 -19 20 -35 36 -35 16 0 32 16 36 35 5 25 -6 35 -36 35
-30 0 -41 -10 -36 -35z"/>
<path d="M4921 3527 c-94 -119 -18 -287 129 -287 98 0 170 72 170 170 0 156
-205 236 -299 117z"/>
<path d="M1441 3507 c-69 -88 -13 -207 99 -207 57 0 140 77 140 130 0 53 -83
130 -140 130 -38 0 -71 -18 -99 -53z"/>
<path d="M2049 3499 c-18 -30 33 -85 57 -61 22 22 5 82 -24 82 -11 0 -25 -9
-33 -21z"/>
<path d="M2238 3490 c-53 -29 -118 -138 -118 -199 0 -238 345 -318 447 -104
101 213 -121 416 -329 303z"/>
<path d="M3448 3452 c-58 -58 -68 -82 -68 -160 0 -239 322 -320 432 -108 121
235 -177 455 -364 268z"/>
<path d="M1825 3455 c-54 -65 -65 -181 -25 -249 l39 -66 -97 -49 c-106 -54
-169 -152 -124 -197 30 -30 427 -45 522 -19 111 29 71 157 -67 217 -46 20 -86
38 -91 41 -4 3 8 30 28 59 98 150 -76 398 -185 263z"/>
<path d="M3264 3445 c10 -52 76 -58 76 -6 0 28 -13 41 -41 41 -29 0 -40 -11
-35 -35z"/>
<path d="M4072 3429 c-6 -18 2 -36 20 -42 37 -15 78 21 59 51 -20 32 -65 27
-79 -9z"/>
<path d="M4690 3380 c-17 -27 6 -60 41 -60 16 0 29 18 29 40 0 41 -48 55 -70
20z"/>
<path d="M3880 3340 c0 -30 10 -41 35 -36 19 4 35 20 35 36 0 16 -16 32 -35
36 -25 5 -35 -6 -35 -36z"/>
<path d="M3987 3348 c-15 -37 21 -78 51 -59 32 20 27 65 -9 79 -18 6 -36 -2
-42 -20z"/>
<path d="M4780 3320 c0 -30 10 -41 35 -36 19 4 35 20 35 36 0 16 -16 32 -35
36 -25 5 -35 -6 -35 -36z"/>
<path d="M1654 3327 c-29 -28 -13 -67 27 -67 28 0 40 11 35 33 -7 37 -41 56
-62 34z"/>
<path d="M3253 3305 c-6 -9 -3 -29 6 -44 21 -33 88 -11 76 24 -10 30 -67 44
-82 20z"/>
<path d="M3873 3251 c-15 -39 33 -77 62 -48 27 27 10 77 -25 77 -14 0 -31 -13
-37 -29z"/>
<path d="M1504 3236 c-53 -53 -6 -176 67 -176 34 0 109 70 109 101 0 84 -117
134 -176 75z"/>
<path d="M2624 3215 c-29 -35 3 -84 44 -69 39 16 41 42 5 72 -21 17 -33 16
-49 -3z"/>
<path d="M3206 3208 c-14 -37 35 -75 61 -49 22 22 2 81 -27 81 -12 0 -27 -14
-34 -32z"/>
<path d="M4974 3207 c-29 -28 -13 -67 27 -67 28 0 40 11 35 33 -7 37 -41 56
-62 34z"/>
<path d="M5096 3165 c-45 -10 -66 -79 -35 -116 47 -57 139 -21 139 54 0 41
-55 74 -104 62z"/>
<path d="M3764 3045 c4 -19 20 -35 36 -35 16 0 32 16 36 35 5 25 -6 35 -36 35
-30 0 -41 -10 -36 -35z"/>
<path d="M1470 3039 c-8 -12 -5 -32 6 -43 27 -27 90 -4 79 29 -11 33 -68 43
-85 14z"/>
<path d="M2254 3027 c-28 -27 -13 -70 21 -63 19 4 35 19 35 35 0 31 -35 49
-56 28z"/>
<path d="M3490 3020 c-17 -27 6 -60 41 -60 16 0 29 18 29 40 0 41 -48 55 -70
20z"/>
<path d="M3670 3019 c-8 -12 -5 -32 6 -43 27 -27 90 -4 79 29 -11 33 -68 43
-85 14z"/>
<path d="M3587 2969 c-16 -41 16 -72 51 -50 30 18 16 81 -18 81 -12 0 -27 -14
-33 -31z"/>
<path d="M5071 2936 c-40 -58 -39 -82 6 -123 73 -66 199 -3 169 84 -30 87
-126 108 -175 39z"/>
<path d="M2313 2947 c-27 -28 -12 -67 27 -67 27 0 40 13 40 40 0 39 -39 54
-67 27z"/>
<path d="M3730 2939 c-8 -12 -5 -32 6 -43 27 -27 90 -4 79 29 -11 33 -68 43
-85 14z"/>
<path d="M3590 2867 c-39 -39 -32 -125 12 -153 99 -62 209 76 119 149 -56 46
-89 47 -131 4z"/>
<path d="M2280 2819 c0 -52 66 -46 76 6 5 24 -6 35 -35 35 -28 0 -41 -13 -41
-41z"/>
<path d="M1760 2780 c0 -27 13 -40 40 -40 27 0 40 13 40 40 0 27 -13 40 -40
40 -27 0 -40 -13 -40 -40z"/>
<path d="M2060 2791 c0 -16 7 -33 16 -38 26 -16 70 20 55 45 -19 32 -71 27
-71 -7z"/>
<path d="M4930 2780 c-20 -32 11 -64 51 -54 20 5 41 -3 47 -18 14 -36 65 -36
78 0 14 34 -22 72 -56 59 -14 -5 -32 0 -39 12 -17 27 -65 27 -81 1z"/>
<path d="M1921 2741 c-26 -48 -9 -96 42 -112 75 -24 129 71 73 127 -36 36 -92
29 -115 -15z"/>
<path d="M2141 2707 c-52 -66 -52 -116 -1 -167 82 -82 225 -25 225 90 0 124
-147 174 -224 77z"/>
<path d="M3763 2727 c9 -44 67 -50 67 -7 0 16 -17 33 -37 37 -27 5 -35 -3 -30
-30z"/>
<path d="M4342 2733 c-17 -21 -16 -33 5 -51 21 -17 33 -16 51 5 17 21 16 33
-5 51 -21 17 -33 16 -51 -5z"/>
<path d="M4654 2747 c-29 -28 -13 -67 27 -67 28 0 40 11 35 33 -7 37 -41 56
-62 34z"/>
<path d="M4764 2736 c-57 -57 -5 -176 76 -176 45 0 100 51 100 93 0 92 -114
145 -176 83z"/>
<path d="M4534 2727 c-24 -23 -16 -82 13 -93 40 -15 78 16 70 58 -8 39 -58 60
-83 35z"/>
<path d="M3859 2688 c-35 -42 0 -98 61 -98 61 0 96 56 61 98 -14 18 -42 32
-61 32 -19 0 -47 -14 -61 -32z"/>
<path d="M4052 2658 c-59 -70 -65 -116 -23 -197 80 -154 331 -82 331 96 0 77
-96 163 -180 163 -61 0 -87 -13 -128 -62z"/>
<path d="M3600 2631 c-45 -55 -60 -173 -29 -234 41 -79 39 -84 -58 -131 -96
-47 -158 -149 -116 -191 28 -28 364 -45 492 -26 145 21 104 177 -59 231 -80
26 -82 33 -38 97 101 144 -82 386 -192 254z"/>
<path d="M4380 2620 c0 -30 10 -41 35 -36 19 4 35 20 35 36 0 16 -16 32 -35
36 -25 5 -35 -6 -35 -36z"/>
<path d="M4606 2608 c-14 -37 35 -75 61 -49 22 22 2 81 -27 81 -12 0 -27 -14
-34 -32z"/>
<path d="M2394 2607 c-29 -28 -13 -67 27 -67 28 0 40 11 35 33 -7 37 -41 56
-62 34z"/>
<path d="M3413 2605 c-6 -9 -3 -29 6 -44 21 -33 88 -11 76 24 -10 30 -67 44
-82 20z"/>
<path d="M2640 2570 c-20 -24 -18 -32 9 -42 39 -16 82 19 62 50 -18 30 -42 27
-71 -8z"/>
<path d="M2774 2557 c-48 -27 -44 -111 7 -127 49 -16 99 21 99 72 0 49 -61 80
-106 55z"/>
<path d="M2900 2540 c0 -30 10 -41 35 -36 19 4 35 20 35 36 0 16 -16 32 -35
36 -25 5 -35 -6 -35 -36z"/>
<path d="M4445 2557 c-56 -56 -2 -177 78 -177 59 0 106 76 85 136 -21 61 -119
85 -163 41z"/>
<path d="M3024 2536 c-70 -70 17 -200 107 -159 63 29 80 72 52 134 -24 54
-116 68 -159 25z"/>
<path d="M3261 2521 c-59 -110 64 -215 146 -124 39 43 43 105 9 139 -38 38
-132 29 -155 -15z"/>
<path d="M4647 2509 c-17 -44 25 -85 56 -54 25 25 9 85 -23 85 -12 0 -27 -14
-33 -31z"/>
<path d="M2425 2490 c-35 -15 -82 -57 -105 -94 -140 -230 168 -470 363 -283
188 180 -18 481 -258 377z"/>
<path d="M3868 2451 c-16 -40 7 -71 51 -71 39 0 61 34 46 75 -12 34 -84 32
-97 -4z"/>
<path d="M2904 2416 c-17 -17 -17 -30 -1 -50 28 -34 80 3 64 45 -14 35 -31 37
-63 5z"/>
<path d="M2784 2365 c4 -19 20 -35 36 -35 16 0 32 16 36 35 5 25 -6 35 -36 35
-30 0 -41 -10 -36 -35z"/>
<path d="M4314 2387 c-29 -28 -13 -67 27 -67 28 0 40 11 35 33 -7 37 -41 56
-62 34z"/>
<path d="M3410 2360 c-17 -27 6 -60 41 -60 16 0 29 18 29 40 0 41 -48 55 -70
20z"/>
<path d="M3943 2317 c5 -31 20 -47 47 -47 60 0 54 78 -7 87 -38 5 -45 -2 -40
-40z"/>
<path d="M3310 2320 c-16 -26 6 -60 39 -60 29 0 55 49 36 68 -18 19 -61 14
-75 -8z"/>
<path d="M4144 2316 c-36 -36 -29 -105 16 -146 78 -70 191 34 140 129 -24 46
-117 56 -156 17z"/>
<path d="M2945 2255 c-107 -114 -128 -326 -47 -465 l58 -100 -162 -80 c-226
-111 -335 -331 -184 -373 233 -64 790 -62 963 4 124 47 12 262 -188 361 -80
40 -151 77 -157 83 -6 6 18 67 53 134 53 101 60 132 43 167 -11 24 -26 84 -31
134 -19 167 -238 252 -348 135z m156 -250 c1 -19 5 -60 9 -90 4 -30 -2 -55
-13 -55 -10 0 -14 9 -7 20 7 11 4 20 -7 20 -20 0 -43 113 -26 130 21 21 43 8
44 -25z m53 -451 c25 -22 40 -48 34 -57 -6 -10 0 -16 12 -12 30 7 74 -58 53
-79 -42 -41 -395 -30 -392 12 0 7 36 39 79 72 43 33 74 72 69 86 -5 14 0 21
10 15 10 -7 24 -2 31 9 14 23 40 12 104 -46z"/>
<path d="M4000 2211 c0 -16 8 -34 18 -40 10 -6 14 -28 8 -49 -5 -21 1 -44 14
-52 35 -21 68 21 50 64 -9 20 -14 52 -12 71 3 23 -9 35 -37 35 -22 0 -41 -13
-41 -29z"/>
<path d="M2660 2020 c0 -27 13 -40 40 -40 27 0 40 13 40 40 0 27 -13 40 -40
40 -27 0 -40 -13 -40 -40z"/>
<path d="M2329 2018 c-19 -30 22 -66 60 -51 17 6 31 26 31 42 0 35 -71 42 -91
9z"/>
<path d="M3967 2009 c-18 -48 24 -81 62 -49 24 19 26 32 9 53 -30 36 -56 34
-71 -4z"/>
<path d="M3389 1998 c-19 -30 22 -66 59 -51 18 6 26 24 20 42 -14 36 -59 41
-79 9z"/>
<path d="M3643 1982 c-14 -9 -23 -38 -20 -64 9 -61 122 -71 133 -12 14 69 -54
114 -113 76z"/>
<path d="M3848 1971 c-16 -40 7 -71 52 -71 46 0 64 26 48 68 -15 40 -85 42
-100 3z"/>
<path d="M2465 1967 c-14 -6 -39 -36 -55 -68 -97 -186 144 -357 278 -197 129
153 -31 342 -223 265z"/>
<path d="M3424 1889 c-56 -39 -60 -148 -7 -196 49 -45 134 -42 183 7 111 111
-46 279 -176 189z"/>
<path d="M3770 1879 c-8 -12 -5 -32 6 -43 27 -27 90 -4 79 29 -11 33 -68 43
-85 14z"/>
<path d="M3667 1809 c-17 -44 25 -85 56 -54 25 25 9 85 -23 85 -12 0 -27 -14
-33 -31z"/>
<path d="M2760 1740 c0 -30 10 -41 35 -36 19 4 35 20 35 36 0 16 -16 32 -35
36 -25 5 -35 -6 -35 -36z"/>
<path d="M3573 1647 c-27 -28 -12 -67 27 -67 27 0 40 13 40 40 0 39 -39 54
-67 27z"/>
<path d="M2428 1613 c-15 -39 6 -73 45 -73 19 0 28 15 23 43 -7 53 -51 72 -68
30z"/>
<path d="M3640 1159 c0 -52 66 -46 76 6 5 24 -6 35 -35 35 -28 0 -41 -13 -41
-41z"/>
<path d="M2562 1133 c-33 -41 -5 -96 45 -89 49 7 69 73 30 98 -37 24 -49 22
-75 -9z"/>
<path d="M3426 1128 c-14 -37 35 -75 61 -49 22 22 2 81 -27 81 -12 0 -27 -14
-34 -32z"/>
<path d="M3080 1110 c-32 -39 -11 -90 37 -90 48 0 72 55 41 93 -29 35 -47 34
-78 -3z"/>
<path d="M3544 1075 c-113 -137 62 -311 187 -186 57 57 62 104 18 167 -35 50
-169 63 -205 19z"/>
<path d="M2748 1061 c-73 -30 -148 -138 -148 -214 0 -274 383 -331 461 -70 55
181 -137 355 -313 284z"/>
<path d="M3246 1064 c-66 -42 -84 -199 -31 -278 19 -29 25 -56 15 -60 -135
-45 -259 -185 -209 -235 23 -23 567 -30 589 -7 40 40 -37 161 -127 201 -51 22
-96 42 -99 45 -3 3 12 35 34 72 88 150 -40 346 -172 262z"/>
<path d="M3474 807 c-29 -28 -13 -67 27 -67 28 0 40 11 35 33 -7 37 -41 56
-62 34z"/>
<path d="M3608 771 c-16 -40 7 -71 51 -71 39 0 61 34 46 75 -12 34 -84 32 -97
-4z"/>
<path d="M3633 667 c-26 -27 -12 -67 24 -67 47 0 63 17 49 52 -11 29 -50 37
-73 15z"/>
<path d="M2850 560 c-17 -27 6 -60 41 -60 16 0 29 18 29 40 0 41 -48 55 -70
20z"/>
<path d="M2724 515 c4 -30 20 -45 46 -45 26 0 42 15 46 45 6 37 -3 45 -46 45
-43 0 -52 -8 -46 -45z"/>
<path d="M2789 414 c-74 -63 -76 -176 -6 -247 114 -113 297 -36 297 125 0 149
-175 222 -291 122z"/>
<path d="M3103 387 c9 -44 67 -50 67 -7 0 16 -17 33 -37 37 -27 5 -35 -3 -30
-30z"/>
<path d="M3334 407 c-29 -28 -13 -67 27 -67 28 0 40 11 35 33 -7 37 -41 56
-62 34z"/>
<path d="M3420 381 c0 -28 13 -41 41 -41 52 0 46 66 -6 76 -24 5 -35 -6 -35
-35z"/>
<path d="M3160 300 c0 -30 10 -41 35 -36 19 4 35 20 35 36 0 16 -16 32 -35 36
-25 5 -35 -6 -35 -36z"/>
<path d="M3267 309 c-17 -44 25 -85 56 -54 25 25 9 85 -23 85 -12 0 -27 -14
-33 -31z"/>
<path d="M3107 229 c-17 -44 25 -85 56 -54 25 25 9 85 -23 85 -12 0 -27 -14
-33 -31z"/>
</g>
</svg>
