<?xml version="1.0" standalone="no"?>
<!DOCTYPE svg PUBLIC "-//W3C//DTD SVG 20010904//EN"
 "http://www.w3.org/TR/2001/REC-SVG-20010904/DTD/svg10.dtd">
<svg version="1.0" xmlns="http://www.w3.org/2000/svg"
 width="660.000000pt" height="660.000000pt" viewBox="0 0 660.000000 660.000000"
 preserveAspectRatio="xMidYMid meet">
<metadata>
Created by potrace 1.10, written by Peter Selinger 2001-2011
</metadata>
<g transform="translate(0.000000,660.000000) scale(0.100000,-0.100000)"
fill="#f72232" stroke="none">
<path d="M2250 4848 c-30 -16 -72 -41 -92 -54 -37 -24 -38 -26 -38 -87 0 -58
-15 -120 -56 -242 -31 -88 -207 -424 -332 -632 -138 -228 -243 -387 -421 -634
-33 -46 -66 -93 -74 -104 -13 -18 -29 -21 -148 -25 l-134 -5 -9 -28 c-16 -46
2 -63 60 -57 27 2 67 4 89 5 58 0 58 -26 2 -84 -25 -25 -91 -100 -147 -166
-150 -177 -298 -334 -331 -351 -20 -10 -29 -22 -29 -38 0 -20 6 -25 36 -28 70
-8 167 10 209 40 74 52 274 293 439 530 l58 82 126 -5 c70 -3 186 -10 257 -16
72 -5 215 -12 318 -14 104 -3 192 -7 198 -10 5 -4 9 -21 9 -38 0 -65 71 -312
109 -382 59 -108 116 -161 184 -172 93 -15 227 71 317 203 38 54 106 192 114
229 4 17 16 41 26 55 17 21 21 23 30 10 5 -8 10 -36 10 -62 0 -107 66 -273
132 -334 61 -56 109 -77 212 -94 68 -11 130 3 191 40 63 39 152 145 197 236
23 49 48 90 55 92 7 2 15 -9 18 -25 47 -219 146 -318 350 -347 45 -6 120 13
169 44 56 34 141 133 176 203 44 91 60 89 96 -11 32 -93 130 -184 229 -214 79
-23 122 -26 197 -13 181 31 356 181 453 387 19 42 35 85 35 95 0 38 38 73 78
73 74 1 239 89 328 175 44 43 58 72 48 99 -11 29 -39 17 -98 -45 -65 -67 -128
-111 -224 -153 -100 -44 -104 -40 -82 89 16 91 7 309 -15 395 -20 75 -66 171
-103 215 -40 48 -116 101 -165 114 -40 12 -52 11 -94 -5 -116 -43 -182 -109
-229 -229 -27 -71 -27 -285 0 -365 54 -154 162 -264 286 -291 90 -20 90 -20
49 -174 -35 -135 -83 -215 -163 -270 -51 -35 -62 -39 -125 -39 -63 -1 -72 2
-107 30 -79 63 -120 196 -136 439 -27 391 43 704 190 851 36 37 65 57 95 65
92 25 137 54 122 78 -15 25 -147 0 -235 -45 -126 -64 -269 -219 -325 -350 -73
-173 -88 -266 -84 -528 3 -191 2 -227 -11 -242 -9 -11 -22 -31 -29 -46 -30
-58 -118 -173 -165 -212 -42 -36 -54 -41 -96 -41 -38 0 -54 6 -75 25 -34 31
-70 87 -77 120 -3 14 -11 39 -16 55 -19 54 -41 217 -53 385 -7 107 -10 464 -7
1023 l3 857 -34 0 c-19 0 -54 -12 -80 -28 -25 -15 -58 -34 -73 -41 -15 -8 -35
-23 -45 -35 -17 -20 -18 -67 -11 -931 4 -500 10 -937 13 -970 6 -57 4 -63 -36
-135 -71 -127 -149 -238 -195 -279 -76 -67 -154 -64 -208 9 -36 48 -52 90 -75
195 -43 192 -45 231 -48 1240 l-3 970 -25 3 c-14 2 -45 -6 -68 -18 -53 -27
-134 -73 -141 -81 -4 -3 -6 -399 -5 -880 1 -481 2 -888 1 -904 0 -33 -71 -192
-149 -338 -54 -103 -169 -231 -216 -243 -74 -17 -105 36 -161 278 -9 37 -16
80 -16 95 0 15 -7 47 -17 71 -23 60 -12 68 72 51 65 -13 66 -12 90 12 13 13
39 56 58 94 68 139 67 142 -82 126 -61 -6 -117 -14 -124 -17 -7 -2 -20 1 -29
8 -13 11 -18 57 -27 293 -27 638 -31 806 -30 1120 l2 330 -29 2 c-16 1 -53
-12 -84 -29z m3 -375 c0 -119 -9 -179 -30 -187 -9 -4 -17 -5 -19 -4 -1 2 -12
40 -24 84 l-20 81 26 59 c51 115 66 108 67 -33z m-111 -143 c-11 -121 -13
-447 -3 -565 6 -77 15 -203 21 -280 15 -202 27 -301 39 -323 7 -14 7 -24 -2
-34 -10 -13 -58 -17 -287 -22 -168 -3 -316 -12 -379 -22 -66 -10 -107 -12
-113 -6 -12 12 1 38 67 127 29 39 72 103 96 143 24 40 52 85 61 100 10 15 22
36 28 47 5 11 16 29 22 40 116 181 320 580 361 705 37 112 47 131 71 128 17
-2 20 -9 18 -38z m104 -186 c-3 -26 -7 -59 -7 -73 -1 -14 -5 3 -9 39 -8 68 -6
80 12 80 7 0 9 -16 4 -46z m3032 -447 c22 -18 44 -68 59 -132 14 -58 34 -568
25 -607 -6 -25 -31 -22 -93 10 -79 40 -114 69 -158 132 -99 141 -107 394 -17
529 51 75 137 108 184 68z m-2968 -501 c0 -2 -3 -11 -6 -20 -9 -23 -24 -20
-24 4 0 11 7 20 15 20 8 0 15 -2 15 -4z m43 -73 c4 -2 7 -10 7 -17 0 -16 76
-66 101 -66 10 0 19 -7 19 -15 0 -17 -21 -20 -37 -4 -7 7 -12 6 -17 -6 -3 -9
0 -18 9 -21 23 -9 18 -26 -7 -23 -15 2 -37 -10 -62 -34 -22 -20 -43 -37 -48
-37 -4 0 -14 13 -22 29 -9 16 -29 40 -45 54 -26 22 -29 28 -21 60 4 20 18 50
31 66 20 25 29 29 54 24 17 -3 33 -7 38 -10z m3127 -119 c0 -8 -4 -14 -10 -14
-5 0 -10 9 -10 21 0 11 5 17 10 14 6 -3 10 -13 10 -21z m-2351 -38 c13 -24 22
-206 10 -206 -19 0 -41 55 -36 91 3 22 1 42 -5 45 -5 3 -7 16 -4 28 3 11 1 28
-4 36 -5 8 -6 18 -4 22 10 15 31 8 43 -16z m2351 -21 c0 -15 -6 -25 -14 -25
-22 0 -30 19 -16 35 18 22 30 18 30 -10z m-1539 -187 c-9 -15 -10 -23 -2 -31
14 -14 14 -57 1 -57 -6 0 -14 10 -19 23 -5 13 -16 29 -25 36 -20 17 -21 31 -1
31 18 0 19 5 3 29 -9 15 -9 26 1 47 l12 27 21 -43 c18 -35 19 -46 9 -62z m749
27 c0 -14 -4 -25 -10 -25 -5 0 -10 11 -10 25 0 14 5 25 10 25 6 0 10 -11 10
-25z m2 -77 c7 -18 -2 -39 -13 -32 -12 7 -12 44 0 44 5 0 11 -6 13 -12z"/>
<path d="M682 2063 l-84 -4 9 -27 c8 -26 9 -165 2 -227 -4 -29 -2 -30 39 -33
l43 -3 -7 63 c-8 79 4 95 54 71 40 -19 62 -11 62 22 0 34 -22 41 -66 20 -42
-20 -54 -11 -54 42 0 52 40 60 107 21 29 -18 36 -19 44 -7 22 35 -4 72 -48 67
-10 -1 -56 -4 -101 -5z"/>
<path d="M1315 2061 c-56 -5 -69 -9 -65 -21 3 -8 5 -71 6 -140 l0 -125 90 -6
c49 -4 95 -4 102 -1 7 2 20 18 28 34 21 41 5 59 -34 36 -40 -23 -80 -30 -103
-18 -16 9 -19 19 -17 48 3 32 7 37 31 40 16 2 36 -3 46 -12 21 -19 41 -4 41
31 0 28 -24 40 -45 23 -7 -6 -26 -10 -42 -8 -22 2 -29 9 -31 31 -4 32 12 57
37 57 9 0 34 -9 55 -21 31 -17 40 -18 47 -7 12 19 11 42 -3 56 -12 12 -23 13
-143 3z"/>
<path d="M2591 2061 c-13 -8 -12 -14 3 -43 15 -29 16 -43 7 -113 -5 -44 -13
-92 -16 -107 -6 -23 -4 -28 19 -34 28 -7 56 9 56 31 0 7 -7 26 -15 41 -19 36
-20 107 -2 102 6 -3 29 -39 50 -81 25 -50 42 -74 51 -71 16 6 36 47 36 73 0
10 7 24 15 31 8 7 15 21 15 32 0 11 5 18 13 16 16 -6 21 -91 7 -118 -16 -30 4
-52 44 -48 l31 3 -4 116 c-2 73 1 124 8 137 14 26 -7 41 -46 34 -26 -5 -53
-51 -53 -90 0 -11 -7 -25 -15 -32 -8 -7 -15 -23 -15 -36 0 -13 -4 -24 -9 -24
-18 0 -41 12 -41 22 0 6 -15 43 -34 83 -25 52 -40 74 -57 78 -31 8 -31 8 -48
-2z"/>
<path d="M3377 2063 c-14 -4 -17 -10 -12 -26 14 -47 18 -193 6 -216 -20 -36 0
-48 91 -54 100 -7 128 6 128 59 0 39 -17 44 -43 13 -14 -15 -27 -19 -60 -17
l-42 3 -3 58 c-2 31 2 83 7 114 6 31 10 57 8 59 -7 6 -65 11 -80 7z"/>
<path d="M4008 2063 c-27 -7 -23 -17 32 -85 59 -73 67 -97 52 -152 -6 -22 -8
-44 -6 -48 8 -12 82 -10 89 3 4 5 1 23 -5 39 -16 39 -6 91 25 124 14 15 25 30
25 34 0 4 14 18 30 32 35 29 38 46 9 55 -36 12 -69 -3 -69 -30 0 -27 -29 -95
-41 -95 -14 0 -48 51 -54 81 -4 19 -16 34 -32 40 -25 9 -27 10 -55 2z"/>
<path d="M4747 2050 c-14 -11 -38 -46 -52 -77 -38 -79 -31 -138 30 -243 17
-29 45 -42 63 -28 16 13 15 23 -2 41 -60 59 -59 225 0 285 16 15 15 33 -2 39
-6 2 -22 -6 -37 -17z"/>
<path d="M5318 2059 c-10 -5 -18 -19 -18 -31 0 -24 -64 -161 -91 -197 -27 -33
-24 -59 6 -67 34 -8 55 11 55 52 0 28 4 35 26 40 19 5 23 11 18 23 -12 28 -17
81 -7 81 19 0 43 -37 43 -66 0 -19 7 -34 21 -42 14 -9 18 -19 14 -33 -9 -28
12 -49 51 -49 44 0 50 13 22 57 -13 20 -41 82 -64 137 -22 55 -45 101 -50 103
-5 1 -17 -2 -26 -8z"/>
<path d="M5886 2061 c-6 -9 16 -61 26 -61 4 0 12 -25 19 -56 16 -70 1 -151
-36 -200 -32 -41 -31 -44 4 -44 21 0 34 9 54 38 37 53 47 85 47 150 0 39 -7
70 -21 97 -36 67 -78 101 -93 76z"/>
<path d="M1906 1918 l1 -143 34 0 34 0 0 125 c0 115 1 125 19 128 45 9 63 -71
21 -90 -33 -15 -32 -31 10 -85 19 -25 35 -50 35 -55 0 -12 68 -40 80 -33 22
13 8 45 -35 79 -51 43 -55 59 -20 92 33 30 32 68 -1 99 -24 22 -36 25 -103 25
l-76 0 1 -142z"/>
</g>
</svg>
