<?xml version="1.0" standalone="no"?>
<!DOCTYPE svg PUBLIC "-//W3C//DTD SVG 20010904//EN"
 "http://www.w3.org/TR/2001/REC-SVG-20010904/DTD/svg10.dtd">
<svg version="1.0" xmlns="http://www.w3.org/2000/svg"
 width="220.000000pt" height="220.000000pt" viewBox="0 0 220.000000 220.000000"
 preserveAspectRatio="xMidYMid meet">
<metadata>
Created by potrace 1.10, written by Peter Selinger 2001-2011
</metadata>
<g transform="translate(0.000000,220.000000) scale(0.050000,-0.050000)"
fill="#f72232" stroke="none">
<path d="M1995 3253 c-183 -75 -212 -146 -92 -223 l62 -41 0 -376 0 -376 -63
-65 c-35 -36 -62 -85 -62 -113 l0 -49 253 1 252 2 29 55 c33 64 35 60 -44 86
l-60 19 0 574 0 573 -60 -2 c-33 -1 -130 -30 -215 -65z"/>
<path d="M2595 3254 c-183 -76 -213 -146 -93 -224 l62 -40 -1 -380 -1 -380
-61 -55 c-40 -36 -61 -73 -61 -110 l0 -55 252 1 253 1 29 57 c34 64 14 90 -70
91 l-45 0 2 575 2 575 -57 4 c-31 1 -126 -26 -211 -60z"/>
<path d="M1080 3174 l-150 -41 -178 -446 c-171 -427 -182 -448 -265 -507 -66
-48 -87 -76 -87 -117 l0 -55 253 4 c243 4 255 6 280 51 39 70 35 76 -73 121
-109 45 -112 51 -76 150 l24 66 223 0 224 0 32 -86 c44 -114 46 -110 -58 -155
-81 -34 -91 -45 -85 -94 l6 -55 308 4 c301 3 309 4 335 49 36 67 35 69 -48
103 -74 30 -77 36 -283 542 -115 282 -214 511 -220 509 -7 -1 -79 -21 -162
-43z m-20 -284 c0 -15 30 -99 68 -187 80 -192 91 -174 -104 -167 l-159 7 65
163 c36 90 71 180 77 200 14 40 53 28 53 -16z"/>
<path d="M3480 2821 c-355 -108 -505 -445 -305 -683 195 -232 640 -147 783
149 148 304 -148 635 -478 534z m101 -202 c84 -44 127 -256 75 -369 -41 -91
-154 -64 -211 49 -100 199 -14 401 136 320z"/>
<path d="M3153 1801 c-204 -226 -189 -556 31 -680 76 -42 93 -11 31 54 -153
159 -156 466 -8 603 52 48 70 102 35 102 -9 0 -49 -35 -89 -79z"/>
<path d="M3752 1863 c-7 -10 2 -30 19 -44 171 -141 190 -478 37 -627 -74 -72
-83 -92 -40 -92 107 0 242 267 226 444 -14 162 -194 397 -242 319z"/>
<path d="M2385 1796 c-52 -26 -58 -52 -15 -69 44 -17 43 -399 -1 -448 -29 -32
-25 -35 62 -42 93 -8 139 13 80 35 -26 10 -31 56 -31 280 0 284 -2 289 -95
244z"/>
<path d="M400 1742 c0 -10 14 -23 30 -29 24 -9 30 -52 30 -210 0 -152 -7 -204
-30 -223 -50 -42 -35 -50 84 -47 114 2 171 38 82 50 -81 12 -80 197 1 197 34
0 64 -13 70 -30 24 -61 53 -27 53 60 0 93 -28 120 -50 50 -31 -97 -130 -51
-130 60 l0 100 96 0 c85 0 99 -7 131 -60 43 -74 73 -61 73 31 l0 69 -220 0
c-121 0 -220 -8 -220 -18z"/>
<path d="M1048 1580 c-153 -61 -167 -282 -22 -342 68 -29 198 27 211 90 5 28
-5 26 -64 -9 -79 -47 -140 -31 -158 39 -15 56 -3 62 127 62 l115 0 -18 65
c-30 103 -94 135 -191 95z m91 -79 c31 -57 27 -61 -46 -61 -81 0 -98 14 -72
63 26 48 92 48 118 -2z"/>
<path d="M1385 1575 c-53 -25 -56 -41 -14 -76 41 -34 22 -195 -27 -232 -39
-29 -39 -29 100 -31 104 -1 159 35 72 47 -105 15 -64 243 42 232 40 -4 52 4
52 35 0 51 -56 62 -99 19 -29 -30 -36 -31 -57 -3 -19 23 -34 25 -69 9z"/>
<path d="M1700 1561 c-44 -34 -46 -40 -15 -52 47 -18 49 -181 2 -232 -32 -35
-29 -37 70 -37 57 0 103 9 103 20 0 11 -13 20 -30 20 -44 0 -43 211 2 228 94
36 108 19 108 -128 0 -136 1 -140 50 -140 28 0 57 -1 65 -1 7 -1 17 8 21 20 4
11 -7 21 -24 21 -46 0 -46 210 0 228 94 36 108 19 108 -128 l0 -140 75 1 c67
0 71 3 40 27 -27 20 -35 56 -35 148 0 171 -82 241 -170 144 l-37 -40 -37 40
c-48 51 -92 51 -148 -2 l-44 -41 -13 41 c-17 51 -27 52 -91 3z"/>
<path d="M2605 1576 c-52 -25 -57 -47 -16 -70 94 -53 132 -278 61 -362 -56
-67 -61 -84 -25 -84 45 0 315 452 315 527 0 23 -137 14 -152 -11 -8 -13 -7
-27 3 -30 67 -24 70 -39 27 -138 l-43 -98 -39 90 c-21 50 -44 115 -50 145 -12
61 -16 62 -81 31z"/>
<path d="M3395 1558 c-72 -54 -50 -89 27 -44 69 41 124 20 134 -51 6 -38 -3
-43 -72 -43 -133 0 -191 -108 -92 -173 48 -32 55 -32 110 1 32 19 58 25 58 13
0 -11 34 -21 75 -20 64 0 70 4 43 25 -22 16 -36 67 -42 152 -13 180 -111 237
-241 140z m165 -207 c0 -45 -76 -79 -111 -50 -52 43 -34 79 41 79 48 0 70 -9
70 -29z"/>
</g>
</svg>
