<?xml version="1.0" standalone="no"?>
<!DOCTYPE svg PUBLIC "-//W3C//DTD SVG 20010904//EN"
 "http://www.w3.org/TR/2001/REC-SVG-20010904/DTD/svg10.dtd">
<svg version="1.0" xmlns="http://www.w3.org/2000/svg"
 width="220.000000pt" height="220.000000pt" viewBox="0 0 220.000000 220.000000"
 preserveAspectRatio="xMidYMid meet">
<metadata>
Created by potrace 1.10, written by Peter Selinger 2001-2011
</metadata>
<g transform="translate(0.000000,220.000000) scale(0.100000,-0.100000)"
fill="#f72232" stroke="none">
<path d="M1349 1188 c-12 -18 -24 -35 -26 -37 -1 -2 -9 1 -17 8 -8 6 -18 11
-22 10 -5 -2 -25 5 -45 15 -35 18 -37 18 -80 -5 -31 -17 -43 -29 -41 -41 4
-19 -13 -25 -23 -8 -10 16 -45 -8 -45 -30 0 -24 8 -25 34 -5 27 21 34 19 34
-10 0 -25 -12 -33 -23 -15 -10 16 -45 -13 -45 -38 l0 -24 36 23 c35 21 36 21
30 2 -9 -27 25 -69 47 -60 10 4 17 17 17 30 0 28 24 54 35 37 3 -5 18 -10 32
-10 18 0 24 -4 19 -15 -3 -9 4 -21 19 -31 38 -25 58 -4 53 58 -1 26 1 48 5 48
5 0 5 5 1 11 -12 20 -23 -6 -27 -66 -3 -57 -3 -56 -5 17 -2 79 7 100 34 77 12
-10 17 -8 29 7 8 10 17 27 20 37 15 43 26 11 24 -74 -2 -116 12 -129 91 -89
50 26 57 38 32 62 -26 27 -62 16 -62 -18 0 -28 7 -30 38 -8 13 9 26 14 29 11
4 -5 -70 -57 -82 -57 -3 0 -5 38 -5 85 0 88 16 118 23 43 l4 -43 1 46 c2 52
-11 69 -55 74 -15 1 -35 5 -44 9 -12 5 -23 -2 -40 -26z m-92 -30 c4 -7 8 -30
9 -51 2 -32 0 -36 -12 -26 -10 9 -14 9 -14 0 0 -6 7 -14 15 -17 20 -8 19 -24
0 -24 -9 0 -18 7 -21 15 -10 24 -62 -8 -67 -42 -2 -16 -5 -2 -7 30 -1 31 -3
63 -4 70 -2 13 60 57 81 57 6 0 15 -6 20 -12z"/>
<path d="M1201 1131 c-14 -10 -25 -30 -25 -44 -2 -24 -1 -25 26 -11 30 16 52
49 43 64 -9 14 -16 12 -44 -9z m13 -19 c3 -5 -1 -9 -9 -9 -8 0 -12 4 -9 9 3 4
7 8 9 8 2 0 6 -4 9 -8z"/>
<path d="M1647 1213 c-4 -3 -7 -17 -7 -30 0 -13 -7 -38 -16 -55 -16 -30 -16
-33 5 -49 22 -18 29 -63 11 -74 -6 -3 -10 4 -10 17 0 13 -9 29 -20 36 -23 14
-28 67 -7 75 8 3 6 9 -8 20 -10 8 -25 13 -32 10 -20 -8 -16 -67 7 -88 11 -10
20 -28 20 -41 0 -25 33 -49 56 -40 8 3 14 17 14 31 0 14 12 48 26 76 14 28 23
53 21 56 -3 2 -15 -17 -26 -43 -12 -26 -24 -45 -27 -41 -3 3 2 19 10 36 9 16
16 42 16 56 0 15 4 24 10 20 17 -11 11 7 -7 21 -21 15 -27 17 -36 7z"/>
<path d="M383 1203 c-16 -6 -18 -163 -3 -163 6 0 10 -4 10 -10 0 -5 -6 -7 -13
-4 -8 3 -24 40 -36 84 -13 43 -28 81 -35 83 -37 13 -123 -116 -97 -147 7 -8
19 -12 26 -10 18 7 75 -26 75 -43 0 -16 36 -17 46 -2 4 7 20 8 41 4 25 -4 43
-1 68 15 19 12 35 17 35 11 0 -6 11 -16 24 -23 20 -9 32 -7 66 11 l41 21 21
-20 c60 -55 138 8 138 111 0 35 -4 41 -34 56 -21 10 -44 13 -60 9 -30 -7 -66
-59 -66 -95 0 -20 -2 -21 -15 -11 -8 7 -22 10 -30 6 -12 -4 -15 4 -15 48 0 45
-3 54 -22 63 -40 17 -48 6 -48 -64 0 -56 -2 -64 -15 -53 -22 18 -55 3 -55 -26
0 -28 8 -30 36 -9 22 17 34 19 34 5 0 -8 -70 -50 -85 -50 -3 0 -5 38 -5 85 0
88 16 118 23 43 3 -42 4 -42 5 8 2 44 -1 52 -20 61 -13 5 -29 8 -35 6z m177
-109 l0 -75 29 20 c32 23 41 26 41 11 0 -8 -70 -50 -85 -50 -3 0 -5 38 -5 85
0 50 4 85 10 85 6 0 10 -32 10 -76z m204 60 c36 -36 3 -137 -50 -150 -31 -8
-44 7 -44 54 0 38 22 87 47 101 24 14 29 14 47 -5z m-476 -21 c25 -66 44 -135
38 -140 -3 -4 -6 -1 -6 5 0 19 -75 63 -93 56 -10 -3 -17 -3 -17 0 0 15 51 106
59 106 5 0 13 -12 19 -27z"/>
<path d="M727 1144 c-4 -4 -7 -20 -7 -35 0 -15 -7 -34 -15 -43 -8 -8 -15 -22
-15 -30 0 -25 38 -19 55 8 26 40 10 128 -18 100z"/>
<path d="M251 1104 c-6 -15 -10 -27 -9 -28 2 -1 16 -10 32 -20 28 -18 29 -18
22 0 -4 11 -10 31 -13 47 -7 34 -16 34 -32 1z"/>
<path d="M873 1192 c-7 -4 -13 -42 -14 -95 -3 -94 6 -116 42 -94 25 16 29 52
7 66 -25 16 -26 15 -31 -26 -2 -21 -4 -1 -5 45 -1 45 1 82 4 82 13 0 74 -42
74 -51 0 -13 -12 -11 -34 6 -26 20 -36 19 -36 -3 0 -10 15 -26 35 -37 20 -10
34 -24 31 -31 -8 -20 5 -24 28 -9 11 8 25 15 31 15 6 0 6 -3 -1 -8 -23 -15
-25 -48 -4 -67 17 -15 24 -16 49 -5 17 7 36 19 43 28 9 11 2 10 -25 -6 l-38
-22 3 77 3 77 42 20 c49 24 53 33 18 42 -17 4 -38 -2 -67 -18 l-43 -25 -40 23
c-43 25 -54 28 -72 16z m129 -70 c-7 -2 -12 -10 -12 -17 0 -7 -9 -15 -20 -18
-13 -3 -18 -1 -13 6 13 24 38 44 48 39 5 -3 4 -7 -3 -10z"/>
<path d="M1883 1188 c-4 -7 -20 -51 -35 -97 -25 -79 -26 -85 -10 -97 22 -17
52 -18 52 -1 0 16 52 47 79 47 12 0 24 6 27 14 8 20 -41 110 -70 129 -30 20
-33 21 -43 5z m100 -131 c-2 -4 -9 -5 -14 -1 -13 7 -89 -42 -89 -58 0 -6 -3
-9 -6 -5 -7 7 22 111 43 151 l16 30 27 -54 c16 -30 26 -58 23 -63z"/>
<path d="M1913 1090 c-12 -45 -11 -46 22 -24 21 13 22 19 13 40 -15 33 -22 30
-35 -16z"/>
<path d="M1375 1110 c-20 -39 -19 -63 5 -78 19 -12 20 -10 20 48 0 33 -2 60
-5 60 -2 0 -11 -13 -20 -30z"/>
</g>
</svg>
