<?xml version="1.0" standalone="no"?>
<!DOCTYPE svg PUBLIC "-//W3C//DTD SVG 20010904//EN"
 "http://www.w3.org/TR/2001/REC-SVG-20010904/DTD/svg10.dtd">
<svg version="1.0" xmlns="http://www.w3.org/2000/svg"
 width="900.000000pt" height="375.000000pt" viewBox="0 0 900.000000 375.000000"
 preserveAspectRatio="xMidYMid meet">
<metadata>
Created by potrace 1.10, written by Peter Selinger 2001-2011
</metadata>
<g transform="translate(0.000000,375.000000) scale(0.100000,-0.100000)"
fill="#00748f" stroke="none">
<path d="M1664 3435 c-11 -27 -20 -35 -40 -35 -43 0 -117 -22 -158 -48 -81
-51 -135 -130 -170 -252 -23 -76 -23 -367 -2 -482 36 -191 59 -288 92 -383 25
-76 28 -124 9 -145 -16 -18 -17 -25 -6 -63 63 -218 122 -377 167 -449 13 -21
24 -40 24 -44 0 -8 87 -122 124 -163 74 -79 219 -164 310 -180 l41 -6 5 -115
c3 -63 9 -121 13 -128 5 -7 12 -37 17 -65 8 -56 17 -83 63 -197 30 -71 121
-205 166 -243 77 -63 196 -128 267 -146 22 -5 53 -14 69 -19 106 -36 118 -36
1730 -40 1124 -2 1603 1 1660 8 44 7 105 15 135 19 231 32 481 155 643 315
139 138 239 339 280 566 5 31 11 314 14 640 l4 585 -23 20 c-22 19 -23 26 -20
122 l3 103 56 16 c133 39 215 183 183 322 -23 94 -72 157 -161 202 -50 26
-185 28 -232 4 -97 -50 -146 -114 -166 -215 -11 -57 -10 -73 4 -122 17 -60 67
-133 110 -161 15 -10 49 -24 76 -32 27 -8 49 -20 50 -27 0 -7 2 -52 3 -102 2
-81 1 -92 -18 -107 -20 -16 -20 -22 -17 -550 3 -540 -2 -638 -35 -763 -57
-213 -169 -378 -339 -497 -81 -57 -227 -127 -283 -135 -21 -3 -48 -11 -62 -18
-14 -7 -45 -15 -70 -19 -25 -3 -76 -10 -114 -16 -77 -12 -3152 -17 -3221 -6
-22 4 -69 12 -105 17 -36 6 -74 14 -85 19 -11 4 -40 16 -65 25 -95 35 -203
127 -265 225 -59 94 -113 288 -117 425 l-3 90 70 1 c49 1 86 8 117 23 26 11
49 21 52 21 3 0 31 16 62 35 109 65 225 199 298 344 44 85 116 300 116 345 1
17 7 42 15 56 19 33 19 62 -1 97 -16 27 -16 31 -1 63 31 66 81 252 101 375 41
247 46 373 21 512 -16 90 -57 181 -106 238 -49 56 -154 105 -226 105 -28 0
-34 4 -41 33 l-8 32 -83 3 c-63 2 -95 -2 -127 -15 -48 -20 -51 -26 -46 -120
l4 -61 41 -17 c54 -22 167 -31 195 -16 12 6 22 20 22 29 0 10 6 26 13 36 13
17 15 17 66 0 95 -34 143 -92 186 -223 24 -73 25 -351 1 -431 -9 -30 -16 -69
-16 -88 0 -20 -7 -58 -15 -86 -8 -28 -24 -91 -36 -141 -45 -193 -37 -175 -72
-172 -30 2 -31 1 -44 -68 -27 -133 -93 -320 -150 -422 -59 -105 -107 -162
-190 -224 -84 -63 -137 -79 -257 -79 -94 0 -111 3 -170 30 -111 49 -207 155
-289 316 -45 88 -63 129 -75 179 -6 22 -18 65 -27 95 -9 30 -20 82 -23 115 -7
57 -8 60 -34 60 -35 0 -48 14 -59 62 -4 21 -17 76 -29 123 -50 212 -62 275
-80 452 -21 202 27 385 119 457 41 32 125 63 146 55 8 -3 17 -21 21 -39 7 -38
22 -45 106 -45 72 0 145 30 153 63 4 12 5 47 3 77 -3 49 -6 57 -37 77 -29 20
-47 23 -123 23 l-89 0 -15 -35z m136 -91 c0 -18 -14 -18 -30 1 -16 19 -3 40
16 24 8 -6 14 -18 14 -25z m818 21 c10 -9 -12 -25 -33 -25 -26 0 -40 14 -29
31 5 9 52 5 62 -6z m4535 -309 c97 -74 116 -183 49 -280 -41 -59 -95 -89 -160
-88 -46 0 -63 6 -110 38 -115 80 -125 223 -21 313 50 43 75 51 144 48 49 -2
68 -8 98 -31z m-4302 -1048 c24 -30 24 -31 -11 -51 -35 -21 -39 -44 -8 -56 14
-5 17 -10 10 -15 -7 -4 -12 -20 -12 -37 0 -34 -6 -35 -39 -10 -22 17 -23 19
-7 49 9 17 16 40 16 51 0 11 5 23 11 27 6 3 8 16 5 29 -5 20 0 35 12 35 2 0
12 -10 23 -22z m-1322 -30 c9 -15 13 -30 9 -33 -8 -8 -58 39 -58 54 0 22 34 7
49 -21z m23 -103 c12 -33 12 -46 2 -70 -9 -21 -14 -25 -17 -15 -10 29 -17 117
-10 123 9 9 9 8 25 -38z m1188 -195 c0 -21 -27 -75 -45 -90 -17 -14 -18 -13
-12 17 10 52 57 111 57 73z m-1100 -46 c0 -31 -23 -28 -28 4 -2 15 2 22 12 22
11 0 16 -9 16 -26z m70 -71 c0 -16 -4 -34 -9 -42 -7 -11 -13 -7 -25 17 -9 17
-16 33 -16 36 0 4 21 12 43 15 4 0 7 -11 7 -26z m955 -2 c-3 -6 -14 -11 -23
-11 -15 1 -15 2 2 15 21 16 32 13 21 -4z m-894 -82 c16 -23 19 -33 10 -42 -13
-13 -31 3 -49 46 -17 39 10 37 39 -4z m847 7 c4 -20 -26 -58 -39 -50 -13 8
-11 48 3 62 16 16 32 10 36 -12z m-788 -77 c0 -25 -33 -22 -38 4 -2 12 3 17
17 17 15 0 21 -6 21 -21z m700 1 c0 -11 -7 -20 -15 -20 -18 0 -19 12 -3 28 16
16 18 15 18 -8z m-670 -25 c0 -16 -6 -25 -15 -25 -8 0 -15 5 -15 10 0 6 5 10
10 10 6 0 10 7 10 15 0 8 2 15 5 15 3 0 5 -11 5 -25z m563 -66 c-5 -4 -25 -11
-45 -14 -47 -9 -50 6 -5 34 30 19 33 19 45 4 6 -9 9 -20 5 -24z m-275 -22
c102 -2 117 -5 120 -20 3 -12 -9 -23 -41 -37 -24 -11 -50 -27 -57 -35 -26 -31
-100 -3 -115 45 -3 11 -22 27 -41 36 -40 19 -46 38 -8 24 14 -6 78 -11 142
-13z"/>
<path d="M639 2830 c-11 -6 -23 -39 -33 -87 -41 -199 -49 -231 -62 -273 -8
-25 -14 -55 -14 -66 0 -12 -7 -38 -15 -57 -8 -20 -15 -49 -15 -65 0 -16 -6
-48 -14 -73 -8 -24 -22 -82 -31 -129 -10 -47 -22 -100 -27 -118 -12 -39 -36
-147 -49 -212 -7 -42 -19 -93 -49 -215 -7 -27 -19 -68 -26 -90 -8 -23 -14 -48
-14 -58 0 -27 37 -57 70 -57 36 0 53 24 68 95 6 28 19 86 28 130 9 44 23 100
30 124 8 25 14 53 14 64 0 11 7 43 15 71 8 28 23 87 33 131 l18 80 115 0 114
0 3 -35 c2 -37 24 -141 47 -225 7 -27 21 -86 31 -130 9 -44 23 -102 31 -129 7
-27 13 -66 13 -86 0 -49 32 -90 70 -90 60 0 72 41 44 145 -17 62 -24 91 -48
210 -16 83 -34 154 -52 214 -8 25 -14 56 -14 71 0 15 -6 46 -14 71 -7 24 -21
80 -31 124 -9 44 -23 102 -31 129 -8 26 -14 55 -14 64 0 8 -6 38 -14 66 -8 28
-22 87 -32 131 -9 44 -23 105 -30 136 -8 31 -14 67 -14 80 -1 52 -57 85 -101
59z m64 -395 c14 -86 38 -198 53 -239 20 -56 9 -64 -84 -62 l-77 1 1 30 c1 17
7 50 13 75 18 71 29 130 36 193 6 52 9 58 28 55 18 -2 23 -12 30 -53z"/>
<path d="M7302 2377 c-22 -23 -22 -24 -22 -513 0 -480 0 -491 20 -512 23 -25
57 -28 83 -9 15 11 17 52 19 451 l3 438 50 19 c64 24 173 25 235 2 97 -36 163
-113 200 -234 21 -65 22 -86 19 -365 -3 -281 -2 -297 16 -310 28 -20 61 -17
85 8 21 22 21 29 17 328 -5 330 -9 365 -63 475 -49 100 -124 161 -270 220 -52
21 -192 17 -246 -8 -36 -16 -37 -16 -66 8 -37 31 -53 31 -80 2z"/>
<path d="M3330 2378 c-157 -68 -233 -155 -296 -338 -26 -77 -26 -281 0 -360
48 -145 135 -252 248 -308 57 -29 73 -32 151 -32 117 0 190 33 274 124 101
109 153 243 153 392 -1 227 -110 421 -283 502 -58 28 -78 32 -145 31 -42 0
-88 -5 -102 -11z m211 -128 c121 -62 199 -214 199 -389 0 -165 -58 -286 -176
-367 -53 -37 -60 -39 -134 -39 -60 0 -83 4 -97 18 -11 9 -24 17 -30 17 -20 0
-102 100 -129 157 -40 86 -56 203 -39 294 18 98 39 154 80 209 86 118 214 157
326 100z"/>
<path d="M4110 2367 c-72 -28 -156 -110 -166 -162 -11 -60 2 -139 30 -183 40
-64 129 -127 308 -221 109 -58 179 -131 178 -188 -1 -33 -55 -96 -108 -126
-47 -26 -62 -29 -140 -29 -90 0 -89 -1 -196 59 -32 17 -62 6 -77 -29 -19 -47
4 -74 96 -114 71 -31 87 -34 176 -34 90 0 104 3 171 34 93 43 150 101 177 179
19 53 19 61 5 114 -23 89 -101 171 -224 236 -202 108 -260 149 -279 200 -17
45 -13 71 17 105 41 46 95 66 177 65 85 0 135 -23 183 -82 40 -49 71 -53 102
-14 29 38 20 69 -38 120 -79 71 -137 93 -245 92 -69 0 -106 -6 -147 -22z"/>
<path d="M5433 2368 c-109 -43 -173 -128 -173 -229 0 -30 7 -65 15 -79 8 -14
18 -34 24 -46 20 -44 121 -117 261 -190 144 -74 220 -145 220 -206 0 -40 -54
-105 -112 -134 -45 -23 -65 -27 -138 -27 -87 1 -86 0 -191 59 -27 15 -57 7
-76 -22 -13 -20 -13 -29 -3 -53 9 -22 29 -37 92 -65 74 -34 86 -36 179 -36
127 0 197 27 281 108 71 69 94 153 66 246 -16 53 -123 162 -198 201 -30 16
-77 40 -105 54 -111 58 -184 120 -200 171 -15 49 15 93 90 133 30 15 58 21
110 21 85 0 135 -23 183 -83 40 -49 71 -53 102 -14 29 37 20 69 -37 122 -74
68 -137 91 -247 90 -67 0 -105 -6 -143 -21z"/>
<path d="M6264 2360 c-114 -52 -217 -180 -259 -320 -15 -48 -20 -94 -20 -175
1 -124 20 -207 67 -288 15 -26 28 -51 28 -55 0 -20 122 -124 177 -151 55 -28
72 -31 150 -31 78 0 94 3 151 32 169 84 272 269 272 491 0 98 -12 161 -48 252
-32 80 -132 195 -199 229 -18 9 -46 23 -62 31 -19 10 -57 15 -113 14 -69 0
-93 -5 -144 -29z m241 -107 c87 -45 142 -111 180 -218 21 -56 25 -86 25 -174
0 -90 -4 -116 -26 -175 -32 -83 -93 -160 -158 -200 -42 -26 -58 -30 -121 -31
-70 0 -76 2 -131 41 -117 82 -169 199 -168 374 0 151 36 245 125 327 69 64
123 85 199 76 25 -3 58 -12 75 -20z"/>
<path d="M8352 2367 c-115 -47 -172 -123 -172 -230 0 -52 5 -71 29 -108 42
-67 126 -129 285 -213 83 -43 132 -78 168 -120 22 -24 28 -41 28 -80 0 -43 -4
-52 -36 -83 -65 -61 -108 -76 -211 -76 -85 0 -94 2 -136 31 -68 45 -82 47
-113 17 -20 -20 -24 -32 -20 -53 8 -33 29 -48 115 -84 56 -24 79 -28 158 -28
126 0 202 28 281 104 140 134 98 310 -103 431 -78 47 -86 52 -152 85 -34 17
-87 55 -118 83 -47 43 -57 59 -62 92 -4 34 -1 46 21 72 37 44 106 68 191 67
81 -1 131 -26 178 -88 31 -40 64 -47 89 -18 41 47 26 89 -54 148 -85 64 -116
74 -221 73 -69 -1 -105 -6 -145 -22z"/>
</g>
</svg>
