<?xml version="1.0" standalone="no"?>
<!DOCTYPE svg PUBLIC "-//W3C//DTD SVG 20010904//EN"
 "http://www.w3.org/TR/2001/REC-SVG-20010904/DTD/svg10.dtd">
<svg version="1.0" xmlns="http://www.w3.org/2000/svg"
 width="220.000000pt" height="220.000000pt" viewBox="0 0 220.000000 220.000000"
 preserveAspectRatio="xMidYMid meet">
<metadata>
Created by potrace 1.10, written by Peter Selinger 2001-2011
</metadata>
<g transform="translate(0.000000,220.000000) scale(0.050000,-0.050000)"
fill="#f72232" stroke="none">
<path d="M1096 3785 c-46 -10 -64 -112 -39 -220 18 -80 16 -85 -24 -85 -36 0
-48 -18 -67 -99 -13 -55 -64 -210 -112 -345 -49 -135 -109 -331 -133 -436 -50
-214 -95 -321 -129 -308 -13 5 -56 -25 -95 -67 -75 -78 -116 -165 -78 -165 11
0 21 -11 21 -25 1 -14 36 -51 79 -83 44 -32 82 -77 85 -100 14 -97 70 -57 82
58 14 139 30 159 161 202 171 56 220 86 192 119 -18 22 -18 29 -1 29 13 0 29
-14 35 -31 8 -19 25 -26 45 -18 17 7 64 16 102 21 39 5 85 14 103 19 22 7 38
-3 46 -28 7 -22 26 -44 42 -51 16 -6 29 -30 29 -53 0 -23 25 -67 55 -98 108
-109 162 -265 117 -337 -6 -11 1 -30 17 -43 22 -18 30 -15 41 18 7 23 21 36
31 30 24 -15 24 -14 -11 137 -33 145 -70 237 -129 324 -57 83 -52 100 34 122
55 13 73 28 69 53 -3 19 4 35 15 35 58 0 15 60 -44 63 -51 2 -55 4 -18 11 l48
9 -50 26 c-27 14 -80 31 -119 39 -85 15 -128 61 -133 142 -2 33 -13 112 -24
175 -11 63 -34 252 -51 420 -42 423 -50 475 -69 475 -10 0 -34 16 -53 36 -20
20 -51 33 -70 29z m9 -650 c10 -97 114 -538 146 -620 10 -26 3 -35 -24 -35
-31 -1 -32 -4 -7 -20 37 -24 -8 -63 -53 -46 -15 6 -90 -5 -166 -24 -199 -49
-218 -27 -30 36 160 53 132 60 -86 21 -86 -15 -87 -25 59 418 134 408 145 426
161 270z m228 -850 c-6 -10 -53 -20 -106 -22 -52 -3 -102 -10 -111 -15 -9 -6
-16 -1 -16 10 0 19 47 31 180 47 58 8 68 4 53 -20z"/>
<path d="M2216 3224 c-515 -795 -468 -1660 75 -1396 109 53 131 72 254 228 92
117 88 119 135 -55 34 -125 134 -221 230 -221 93 0 302 108 346 179 95 154
130 167 162 60 27 -92 116 -159 210 -159 212 0 447 409 346 604 -132 255 -350
397 -416 271 -14 -25 -55 -83 -93 -129 -56 -69 -71 -107 -80 -204 -12 -143
-44 -182 -275 -343 -230 -159 -267 -162 -317 -24 -62 171 -39 247 146 484 179
228 278 395 348 588 l49 134 -73 37 c-187 94 -253 35 -444 -400 -45 -104 -89
-197 -98 -208 -18 -24 -81 -274 -81 -324 0 -58 -413 -372 -530 -404 -75 -20
-129 72 -129 222 -1 130 17 168 172 359 156 192 288 413 337 563 19 57 43 115
54 129 16 19 -1 34 -67 63 -173 74 -179 73 -261 -54z m115 -216 c-18 -71 -170
-307 -171 -264 0 48 137 316 163 316 13 0 16 -20 8 -52z m809 41 c0 -18 -115
-237 -147 -279 -88 -118 -13 95 94 265 15 25 53 35 53 14z m647 -624 c42 -184
-16 -316 -175 -399 -112 -58 -105 116 19 404 18 44 42 101 52 127 28 74 70 22
104 -132z"/>
<path d="M3242 1377 c-63 -67 -64 -675 -2 -737 66 -66 138 -20 79 51 -32 39
-29 611 4 631 26 16 15 82 -16 92 -13 5 -42 -12 -65 -37z"/>
<path d="M3866 1387 c-7 -18 -2 -49 11 -69 14 -24 23 -138 23 -308 0 -170 -9
-284 -23 -308 -51 -81 15 -130 83 -62 62 62 61 670 -1 736 -48 52 -76 56 -93
11z"/>
<path d="M400 1009 l0 -312 55 7 c54 6 55 8 49 131 l-6 125 91 0 c134 0 140
94 6 104 -83 6 -85 8 -85 76 l0 70 105 -7 105 -7 0 62 0 62 -160 0 -160 0 0
-311z"/>
<path d="M840 1012 l0 -310 155 8 c85 5 162 9 170 10 8 0 15 23 15 50 0 48 -5
50 -121 50 l-122 0 7 65 c6 61 11 65 91 71 133 10 128 104 -5 104 -89 0 -90 1
-90 69 l0 69 115 6 c108 6 115 9 115 56 0 49 -4 50 -165 56 l-165 6 0 -310z"/>
<path d="M1300 1013 l0 -313 50 0 c48 0 50 5 50 132 0 165 37 165 79 1 24 -91
39 -117 76 -126 71 -18 74 1 25 133 -44 119 -45 122 -8 163 49 54 52 221 6
268 -20 19 -82 37 -155 43 l-123 12 0 -313z m199 178 c42 -50 18 -120 -44
-127 -50 -6 -55 -1 -55 61 0 97 47 129 99 66z"/>
<path d="M1744 1015 l6 -305 50 0 c50 0 50 0 43 168 -9 195 18 205 59 22 37
-168 100 -173 136 -10 36 161 65 160 62 -3 -4 -192 -5 -187 50 -187 l50 0 0
310 0 310 -68 0 c-68 0 -68 0 -101 -145 -55 -235 -67 -244 -100 -75 -42 210
-48 220 -122 220 l-70 0 5 -305z"/>
<path d="M2340 1010 l0 -310 138 0 c143 0 165 13 146 85 -6 27 -30 35 -96 35
l-88 0 0 250 0 250 -50 0 -50 0 0 -310z"/>
<path d="M2700 1314 c0 -5 32 -78 70 -163 60 -132 70 -174 70 -303 l0 -151 55
7 c54 6 55 9 57 146 2 109 16 172 65 287 77 179 77 187 9 179 -45 -5 -59 -22
-84 -101 -16 -52 -35 -95 -42 -95 -7 0 -26 43 -42 95 -26 82 -158 165 -158 99z"/>
<path d="M3474 1036 c-67 -342 -67 -336 -5 -336 40 0 52 13 62 70 12 61 21 70
70 70 49 0 59 -9 70 -70 11 -58 22 -70 64 -70 58 0 59 -9 -21 380 l-47 230
-69 6 -68 5 -56 -285z m155 -31 c11 -50 7 -68 -18 -77 -48 -19 -57 0 -41 93
16 91 38 85 59 -16z"/>
</g>
</svg>
